<svg id="Camada_6" data-name="Camada 6" xmlns="http://www.w3.org/2000/svg" viewBox="0 0 1080 1080"><defs><style>.cls-1{fill:#fff;}.cls-2{fill:#f9a61a;}.cls-3{fill:none;}.cls-4{fill:#281114;}.cls-5{fill:#eddac5;}.cls-6{fill:#c8a077;}.cls-7{fill:#b58a59;}.cls-8{fill:#c49c73;}.cls-9{fill:#6b432c;}.cls-10{fill:#a1642a;opacity:0.86;}.cls-11{fill:#562718;}.cls-12{fill:#e4c397;}.cls-13{fill:#9b0c17;}.cls-14{fill:#770a17;}.cls-15{fill:#e04950;}.cls-16{fill:#719953;}.cls-17{fill:#e59757;}.cls-18{fill:#db2782;}.cls-19{fill:#39b5bd;}.cls-20{fill:#333742;}</style></defs><title>EXPORT_NEW</title><rect class="cls-1" width="1080" height="1080"/><rect class="cls-2" x="355.07" y="260.71" width="389.95" height="389.95"/><path class="cls-3" d="M320.32,387.59l0,.05Z"/><path class="cls-3" d="M320.88,388.26h0Z"/><path class="cls-3" d="M320.07,387.34l.08.07Z"/><path class="cls-3" d="M320.18,387.44l.07.07Z"/><path class="cls-3" d="M320,387.25l.1.08Z"/><path class="cls-3" d="M321.07,388.53l0,0Z"/><path class="cls-3" d="M321.88,389.95l0,.1Z"/><path class="cls-3" d="M322.07,390.39l0,.11Z"/><path class="cls-3" d="M321.68,389.54l0,.09Z"/><path class="cls-3" d="M321.48,389.17l0,.08Z"/><path class="cls-3" d="M322.26,390.88l0,.11Z"/><path class="cls-3" d="M321.27,388.83l0,.06Z"/><path class="cls-3" d="M474.56,527.11l-1.33.7Z"/><path class="cls-3" d="M473.08,527.88l-1.32.67Z"/><path class="cls-3" d="M471.65,528.61l-1.29.64Z"/><path class="cls-3" d="M477.65,525.41l-1.38.77Z"/><path class="cls-3" d="M476.09,526.28l-1.36.73Z"/><path class="cls-3" d="M479.26,524.49l-1.39.79Z"/><path class="cls-3" d="M465.25,531.52l-1.1.43Z"/><path class="cls-3" d="M526.69,486.66a183.41,183.41,0,0,0,23.14-30h0A183.4,183.4,0,0,1,526.69,486.66Z"/><path class="cls-3" d="M464.14,532l-1,.38Z"/><path class="cls-3" d="M468.93,529.92l-1.24.56Z"/><path class="cls-3" d="M466.42,531l-1.16.48Z"/><path class="cls-3" d="M467.65,530.51l-1.2.52Z"/><path class="cls-3" d="M470.26,529.29l-1.27.6Z"/><path class="cls-3" d="M322.26,400.83l-.11.42Z"/><path class="cls-3" d="M322.69,398.88l-.07.38Z"/><path class="cls-3" d="M322,401.88l-.13.43Z"/><path class="cls-3" d="M316,414.16l-.28.43Z"/><path class="cls-3" d="M315.32,415.22l-.28.41Z"/><path class="cls-3" d="M322.5,399.83l-.09.41Z"/><path class="cls-3" d="M316.73,413l-.25.4Z"/><path class="cls-3" d="M321.15,404.18l-.15.38Z"/><path class="cls-3" d="M319.09,408.75l-.25.5Z"/><path class="cls-3" d="M321.59,403l-.15.43Z"/><path class="cls-3" d="M318.36,410.18l-.23.43Z"/><path class="cls-3" d="M317.49,411.75l-.07.13Z"/><path class="cls-3" d="M313.05,418.23l-.35.42Z"/><path class="cls-3" d="M323,395.49c0,.08,0,.15,0,.23C323,395.64,323,395.56,323,395.49Z"/><path class="cls-3" d="M314.57,416.28l-.36.48Z"/><path class="cls-3" d="M311.81,419.67c-.32.35-.63.68-.94,1C311.17,420.35,311.49,420,311.81,419.67Z"/><path class="cls-3" d="M323,394.74s0,.1,0,.15S323,394.79,323,394.74Z"/><path class="cls-3" d="M319.8,407.28l-.22.47Z"/><path class="cls-3" d="M312.41,419l-.37.42Z"/><path class="cls-3" d="M322.83,398l-.05.35Z"/><path class="cls-3" d="M313.72,417.41l-.33.41Z"/><path class="cls-3" d="M322.93,397.1c0,.11,0,.21,0,.32C322.91,397.31,322.92,397.21,322.93,397.1Z"/><path class="cls-3" d="M322.43,391.41l0,.11Z"/><path class="cls-3" d="M323,396.27c0,.09,0,.19,0,.28C323,396.46,323,396.37,323,396.27Z"/><path class="cls-3" d="M322.6,392l0,.08Z"/><path class="cls-3" d="M773.16,395.59l.81.52Z"/><path class="cls-3" d="M766.22,390l-.56-.58Z"/><path class="cls-3" d="M598.46,445.91a92.52,92.52,0,0,0,5.08,8.45A92.52,92.52,0,0,1,598.46,445.91Z"/><path class="cls-3" d="M771.39,394.37l.69.5Z"/><path class="cls-3" d="M772.3,395l.74.5Z"/><path class="cls-3" d="M770.44,393.67l.68.51Z"/><path class="cls-3" d="M603.53,454.35q.89,1.32,1.8,2.58Q604.43,455.67,603.53,454.35Z"/><path class="cls-3" d="M623.46,476.28l1.56,1.28Z"/><path class="cls-3" d="M618.33,471.71q.9.85,1.77,1.64Q619.23,472.56,618.33,471.71Z"/><path class="cls-3" d="M608.11,460.59q.93,1.17,1.87,2.29Q609,461.76,608.11,460.59Z"/><path class="cls-3" d="M612.8,466.09c1.25,1.37,2.5,2.66,3.72,3.87C615.3,468.74,614.05,467.45,612.8,466.09Z"/><path class="cls-3" d="M610,462.87q.94,1.11,1.88,2.17Q610.92,464,610,462.87Z"/><path class="cls-3" d="M767.57,391.27l.61.56Z"/><path class="cls-3" d="M761.8,384.69c.19.28.39.56.59.83C762.18,385.25,762,385,761.8,384.69Z"/><path class="cls-3" d="M760.86,383.29c.2.31.4.62.6.92C761.25,383.91,761.05,383.6,760.86,383.29Z"/><path class="cls-3" d="M759.67,381.35q.43.76.88,1.47Q760.1,382.11,759.67,381.35Z"/><path class="cls-3" d="M762.76,386l.57.74Z"/><path class="cls-3" d="M766.61,390.37l.59.57Z"/><path class="cls-3" d="M597.68,444.4c-.37-.73-.73-1.48-1.08-2.23h0C596.95,442.92,597.31,443.66,597.68,444.4Z"/><path class="cls-3" d="M768.54,392.13l.63.53Z"/><path class="cls-3" d="M764.69,388.35l.56.62Z"/><path class="cls-3" d="M769.5,392.93l.65.52Z"/><path class="cls-3" d="M763.68,387.17l.6.72Z"/><path class="cls-3" d="M482.59,522.51l-1.4.85Z"/><path class="cls-3" d="M497.14,512.72l-1.44,1Z"/><path class="cls-3" d="M502.94,508.31l-1.47,1.14Z"/><path class="cls-3" d="M493.35,515.44l-1.42,1Z"/><path class="cls-3" d="M499.06,511.3l-1.45,1.08Z"/><path class="cls-3" d="M491.49,516.74l-1.42,1Z"/><path class="cls-3" d="M501,509.82l-1.46,1.11Z"/><path class="cls-3" d="M495.23,514.11l-1.44,1Z"/><path class="cls-3" d="M484.31,521.45l-1.42.88Z"/><path class="cls-3" d="M480.91,523.52l-1.4.82Z"/><path class="cls-3" d="M486.06,520.34l-1.42.9Z"/><path class="cls-3" d="M489.65,518l-1.43.95Z"/><path class="cls-3" d="M487.84,519.18l-1.42.92Z"/><path class="cls-3" d="M518.77,494.6l-1.64,1.54Z"/><path class="cls-3" d="M516.79,496.46l-1.6,1.47Z"/><path class="cls-3" d="M504.9,506.74l-1.48,1.18Z"/><path class="cls-3" d="M526.61,486.74l-1.81,1.89Z"/><path class="cls-3" d="M522.72,490.75,521,492.44Z"/><path class="cls-3" d="M524.67,488.76l-1.77,1.8Z"/><path class="cls-3" d="M520.75,492.7l-1.68,1.62Z"/><path class="cls-3" d="M506.87,505.14l-1.49,1.22Z"/><path class="cls-3" d="M508.86,503.49l-1.51,1.26Z"/><path class="cls-3" d="M514.81,498.28l-1.59,1.42Z"/><path class="cls-3" d="M510.84,501.8l-1.54,1.32Z"/><path class="cls-3" d="M512.82,500.06l-1.56,1.36Z"/><path class="cls-4" d="M590.07,422.11q.36,1.9.8,3.75Q590.43,424,590.07,422.11Z"/><path class="cls-4" d="M592.91,433q.87,2.59,1.88,5.06Q593.78,435.6,592.91,433Z"/><path class="cls-4" d="M596.59,442.17h0l-.41-.88Z"/><path class="cls-4" d="M518.67,421a44.51,44.51,0,0,1,3.29-8.92c-9.84-4.69-24.11-10.94-43.48-18.09-29.36-12.07-35.28-29.66-36.32-38.29a8.3,8.3,0,0,1,2.74-7.18c-.57-5.08-.48-17.29,8.29-37a11.57,11.57,0,0,1,11.22-20.23c.35,1.19.91,2,1.72,2.17C473,295.2,480.2,288,480.2,288s20-15.07,54.09-15.81S583.2,246.3,583.2,246.3s15.54,43,38.54,47.17l0,.17.38-.1c.59.1,1.19.17,1.79.22a16.76,16.76,0,0,0,3.69-.12,10.32,10.32,0,0,1,.66,19.57c2.68,6.66,6.14,16.84,6.67,26.18l1.17.73a8.41,8.41,0,0,1,3.81,7.55c-.7,11.65-6,42.39-42.17,52.19-18.66,5.06-31,8.74-39.4,11.67.1,3.56.88,8.55,4.25,10.13a4.06,4.06,0,0,0,.55-1.89c0-.69,1.24-1.33,3.29-1.92a140.14,140.14,0,0,1-16.63,38.84h0a140,140,0,0,0,16.7-39.09c2.16-8.65,13-8.23,18.71-7.37a4.35,4.35,0,0,1,1.66.62h0a28.92,28.92,0,0,1,5.33-1.06c6-.64,49.34-10.33,92.79-22.83a35.42,35.42,0,0,0-10.28-27.91L669,353.37a25.25,25.25,0,0,1-4.76-29.11L670,312.75a12.59,12.59,0,0,0-2.23-14.37l-20-20.6a11.51,11.51,0,0,1-3.23-7.4c-2.75-52.08-49.9-51.38-49.9-51.38-13.71-30-74.84-29.64-114.12-2.72s-46.31,68.3-47.55,72.5S418.9,298.41,415.48,316c-2.22,12.6,6.44,29.64,6.42,42.73.74,8.15-17.11,28.16-16.82,42.49a21.58,21.58,0,0,0,0,7.17c46.64,7.58,93.68,10,99.92,10C513.4,418.34,517.43,420.27,518.67,421Z"/><path class="cls-4" d="M588.66,413a4.56,4.56,0,0,1,.15.44A4.43,4.43,0,0,0,588.66,413Z"/><path class="cls-4" d="M588.87,413.61a4.56,4.56,0,0,1,.12.66A4.51,4.51,0,0,0,588.87,413.61Z"/><path class="cls-4" d="M588,411.81l.12.15Z"/><path class="cls-4" d="M588.31,412.27a4.48,4.48,0,0,1,.27.49A4.46,4.46,0,0,0,588.31,412.27Z"/><path class="cls-5" d="M496.73,453.75c-34.42-15.11-89.65-40.47-89.65-40.47a10.94,10.94,0,0,1-2-4.93c-30.86-5-61.56-12.28-80.14-22.61,0,0-3.3-1.41-5,1.52h0l.1.08h0l.08.07,0,0,.07.07.08.08,0,.05a7.51,7.51,0,0,1,.51.62h0l.18.26,0,0,.17.26,0,.06.16.27,0,.08.16.29,0,.09.15.32,0,.1.15.34,0,.11.14.37,0,.11.13.42,0,.11c0,.15.09.31.13.48l0,.08a14,14,0,0,1,.37,2.66s0,.1,0,.15,0,.39,0,.6,0,.15,0,.23,0,.37,0,.56,0,.19,0,.28,0,.36,0,.55,0,.21,0,.32,0,.36-.07.55l-.05.35q0,.27-.09.55l-.07.38c0,.19-.08.38-.12.57l-.09.41c0,.19-.1.39-.15.59l-.11.42c-.06.2-.12.41-.19.62l-.13.43c-.07.22-.15.45-.23.67l-.15.43c-.09.25-.19.51-.29.76l-.15.38c-.16.39-.32.78-.5,1.18s-.47,1-.7,1.54l-.22.47-.49,1-.25.5-.48.93-.23.43q-.32.59-.63,1.14l-.07.13c-.23.4-.46.79-.69,1.17l-.25.4-.45.71-.28.43-.42.63-.28.41-.47.65-.36.48-.5.65-.33.41-.33.41-.35.42-.3.34-.37.42-.23.26c-.32.35-.63.68-.94,1h0c-4.45,4.55-8,6-8.88,9.52-1.48,5.93-23.71,80.77-9.63,106s135.8-15.38,185.66-42.8l4-10.56Zm-32.52,21.31-4.82,2.55c-1.62.83-3.27,1.59-4.9,2.39-.82.38-1.64.79-2.47,1.15l-2.51,1.07L447,483.29c-.84.35-1.67.73-2.53,1-3.42,1.24-6.8,2.58-10.3,3.57A138.28,138.28,0,0,1,413,492.74q2.61-.78,5.21-1.52c1.74-.5,3.48-.94,5.19-1.54l5.15-1.65c.86-.26,1.71-.56,2.55-.88l2.54-.92c6.78-2.4,13.42-5.19,19.93-8.24s12.88-6.4,19.1-10a207.92,207.92,0,0,0,18.14-11.79,117.17,117.17,0,0,1-17.23,13.26C470.52,471.45,467.37,473.25,464.21,475.06Z"/><path class="cls-5" d="M496.73,453.75l16.72-33.1,5.16.59.06-.23c-1.24-.74-5.26-2.68-13.64-2.68-6.24,0-53.28-2.42-99.92-10a10.94,10.94,0,0,0,2,4.93S462.31,438.64,496.73,453.75Z"/><path class="cls-6" d="M311.81,419.67l.23-.26.37-.42.3-.34.35-.42.33-.41.33-.41.5-.65.36-.48.47-.65.28-.41.42-.63.28-.43.45-.71.25-.4c.23-.38.46-.76.69-1.17l.07-.13q.32-.55.63-1.14l.23-.43.48-.93.25-.5.49-1,.22-.47c.23-.5.47-1,.7-1.54s.35-.8.5-1.18l.15-.38c.1-.26.2-.51.29-.76l.15-.43c.08-.23.16-.45.23-.67l.13-.43c.06-.21.13-.42.19-.62l.11-.42c.05-.2.1-.4.15-.59l.09-.41c0-.19.08-.38.12-.57l.07-.38q0-.28.09-.55l.05-.35c0-.19,0-.37.07-.55s0-.21,0-.32,0-.37,0-.55,0-.19,0-.28,0-.37,0-.56,0-.16,0-.23,0-.4,0-.6,0-.1,0-.15a14,14,0,0,0-.37-2.66l0-.08c0-.16-.08-.32-.13-.48l0-.11-.13-.42,0-.11-.14-.37,0-.11-.15-.34,0-.1-.15-.32,0-.09-.16-.29,0-.08-.16-.27,0-.06-.17-.26,0,0-.18-.26h0a7.47,7.47,0,0,0-.51-.62l0-.05-.08-.08-.07-.07,0,0-.08-.07h0l-.1-.08h0l-21.2-18.56A24.54,24.54,0,0,0,292,364c-2.56-1-5.67-1.09-7.89.54s-3.08,4.55-2.91,7.26a24.54,24.54,0,0,0,2.28,7.79s-18-3.5-27.45-.53c-3.69,1.16-8.84,5.26-11.21,8.32-2.82,3.64-3.12,8.64-2.5,13.2,1.33,9.78,9.31,18.78,18.56,22.25,6.25,2.35,13.18,1.62,19.82.85,10.77-1.24,19.72-1.88,30.15-3h0C311.17,420.35,311.49,420,311.81,419.67Z"/><path class="cls-6" d="M320.37,387.64a7.47,7.47,0,0,1,.51.62A7.51,7.51,0,0,0,320.37,387.64Z"/><path class="cls-6" d="M320.25,387.51l.08.08Z"/><path class="cls-6" d="M320.89,388.27l.18.26Z"/><path class="cls-6" d="M321.1,388.57l.17.26Z"/><path class="cls-6" d="M319.58,407.75l-.49,1Z"/><path class="cls-6" d="M321.31,388.89l.16.27Z"/><path class="cls-6" d="M320.14,387.41l0,0Z"/><polygon class="cls-6" points="320.06 387.33 320.06 387.33 320.07 387.33 320.06 387.33"/><path class="cls-6" d="M316.48,413.45l-.45.71Z"/><path class="cls-6" d="M322.14,401.25c-.06.2-.12.41-.19.62C322,401.67,322.09,401.46,322.14,401.25Z"/><path class="cls-6" d="M321,404.55c-.16.39-.32.78-.5,1.18C320.68,405.34,320.85,404.94,321,404.55Z"/><path class="cls-6" d="M313.39,417.82l-.33.41Z"/><path class="cls-6" d="M322.41,400.24c0,.19-.1.39-.15.59C322.31,400.63,322.36,400.43,322.41,400.24Z"/><path class="cls-6" d="M322.9,397.42c0,.18,0,.36-.07.55C322.86,397.78,322.88,397.6,322.9,397.42Z"/><path class="cls-6" d="M315.75,414.59l-.42.63Z"/><polygon class="cls-6" points="319.97 387.25 319.97 387.25 319.97 387.25 319.97 387.25"/><path class="cls-6" d="M323,394.89c0,.2,0,.39,0,.6C323,395.28,323,395.08,323,394.89Z"/><path class="cls-6" d="M323,395.72c0,.18,0,.37,0,.56C323,396.08,323,395.9,323,395.72Z"/><path class="cls-6" d="M312,419.41l-.23.26Z"/><path class="cls-6" d="M323,396.55c0,.18,0,.36,0,.55C322.95,396.92,323,396.73,323,396.55Z"/><path class="cls-6" d="M322.62,399.26c0,.19-.08.38-.12.57C322.54,399.64,322.58,399.45,322.62,399.26Z"/><path class="cls-6" d="M318.13,410.61q-.32.59-.63,1.14Q317.81,411.2,318.13,410.61Z"/><path class="cls-6" d="M321.45,403.41c-.09.25-.19.51-.29.76C321.26,403.92,321.36,403.66,321.45,403.41Z"/><path class="cls-6" d="M320.51,405.74c-.23.53-.47,1-.7,1.54C320,406.78,320.27,406.27,320.51,405.74Z"/><path class="cls-6" d="M314.22,416.76l-.5.65Z"/><path class="cls-6" d="M322.78,398.32q0,.27-.09.55Q322.74,398.6,322.78,398.32Z"/><path class="cls-6" d="M315,415.62l-.47.65Z"/><path class="cls-6" d="M321.82,402.31c-.07.22-.15.45-.23.67C321.67,402.76,321.75,402.53,321.82,402.31Z"/><path class="cls-6" d="M318.84,409.25l-.48.93Z"/><path class="cls-6" d="M312.7,418.65l-.3.34Z"/><path class="cls-6" d="M321.93,390.05l.15.34Z"/><path class="cls-6" d="M322.47,391.52c0,.15.09.32.13.48C322.56,391.84,322.51,391.68,322.47,391.52Z"/><polygon class="cls-6" points="310.87 420.67 310.86 420.67 310.86 420.67 310.87 420.67"/><path class="cls-6" d="M317.42,411.88c-.23.4-.46.79-.69,1.17C317,412.67,317.19,412.28,317.42,411.88Z"/><path class="cls-6" d="M322.3,391l.13.42Z"/><path class="cls-6" d="M322.12,390.51l.14.37Z"/><path class="cls-6" d="M322.62,392.08a14,14,0,0,1,.37,2.66A14,14,0,0,0,322.62,392.08Z"/><path class="cls-6" d="M321.52,389.25l.16.29Z"/><path class="cls-6" d="M321.73,389.63l.15.32Z"/><path class="cls-5" d="M773.16,395.59l-.13-.08-.74-.5-.22-.15-.69-.5-.27-.19-.68-.51-.29-.22-.65-.52-.33-.26-.63-.53-.36-.3-.61-.56-.37-.34-.59-.57-.39-.38-.56-.58-.42-.44-.56-.62-.41-.46-.6-.72-.35-.43-.57-.74-.38-.49c-.2-.27-.39-.55-.59-.83l-.34-.48c-.2-.3-.4-.61-.6-.92l-.3-.47q-.45-.71-.88-1.47c-6.72-11.6-1.32-16.94-1.32-16.94l-.1-.12h0c-1.83-2.33-4.6-.78-4.6-.78-18,8-43.34,16.18-68.64,23.46a35.34,35.34,0,0,1-9.08,21l-12,13.19s-33.24,10.37-67.38,21c.35.75.71,1.5,1.08,2.23q.39.76.78,1.51a92.52,92.52,0,0,0,5.08,8.45q.89,1.32,1.8,2.58,1.37,1.89,2.77,3.65.93,1.17,1.87,2.29t1.88,2.17l.94,1c1.25,1.37,2.5,2.66,3.72,3.87q.92.91,1.81,1.76t1.77,1.64c1.16,1.05,2.28,2,3.35,2.92l1.56,1.28c4,3.27,7.11,5.27,8.2,6l.14.1c48.28,15.45,152,35.64,162.09,11.88,10.4-24.39-9-86.42-10.9-91.69-1-2.78-5.32-4.4-10.5-7.68l-.07,0ZM709.05,483c-1.25-.06-2.5-.08-3.75-.18l-3.74-.28-7.48-.56-1.87-.15-1.87-.21-3.73-.42c-2.49-.29-5-.53-7.46-.85a250.72,250.72,0,0,1-29.5-5.7A127.8,127.8,0,0,1,635.35,470l-1.75-.7c-.58-.25-1.14-.52-1.72-.78-1.14-.53-2.29-1-3.39-1.63l-1.66-.88c-.54-.31-1.08-.64-1.61-1s-1-.69-1.56-1a14.23,14.23,0,0,1-1.47-1.17,14.18,14.18,0,0,0,1.56,1c.54.31,1.07.63,1.63.9l1.66.85,1.7.76c1.12.53,2.3.94,3.46,1.39.58.22,1.16.45,1.74.66l1.77.57c1.19.37,2.34.81,3.54,1.15l3.59,1,1.79.5,1.81.44,3.62.88c4.85,1.07,9.71,2.13,14.62,2.91,4.88.93,9.83,1.53,14.75,2.27,2.47.33,4.94.6,7.41.9s4.94.63,7.42.83l7.44.72c2.48.24,5,.5,7.44.67l7.46.58c2.49.2,5,.44,7.46.56,5,.35,10,.63,14.94,1-5,.09-10,0-15,0S714,483.21,709.05,483Zm55.3,13.57a93.12,93.12,0,0,1-13.19,1.07,120.37,120.37,0,0,1-13.19-.59,95.46,95.46,0,0,1-13-2.1l13.12.38c2.18,0,4.36.1,6.53.11l3.26,0,3.26,0c1.09,0,2.17,0,3.26-.06s2.17-.06,3.25-.12,2.17-.08,3.25-.15,2.16-.17,3.25-.24A106.94,106.94,0,0,0,777.07,493,51.32,51.32,0,0,1,764.35,496.59Z"/><path class="cls-5" d="M586.89,410.85h0a4.42,4.42,0,0,1,1.09,1l.12.15c.08.1.15.2.22.31a4.46,4.46,0,0,1,.27.49c0,.07.06.14.08.21a4.43,4.43,0,0,1,.15.44l.06.2a4.51,4.51,0,0,1,.12.66c.24,2.69.61,5.31,1.08,7.84q.36,1.9.8,3.75c.58,2.46,1.27,4.84,2,7.15q.87,2.59,1.88,5.06.67,1.64,1.39,3.22l.41.88c34.14-10.62,67.38-21,67.38-21l12-13.19A35.34,35.34,0,0,0,685,387c-43.45,12.5-86.8,22.19-92.79,22.83A28.92,28.92,0,0,0,586.89,410.85Z"/><path class="cls-7" d="M541.58,430.81c10.78-.11,18.93-5.18,21-9.16-3.37-1.58-4.15-6.57-4.25-10.13-11.85,4.13-16,6.76-19.14,9.65A186.3,186.3,0,0,0,522,412.09a44.51,44.51,0,0,0-3.29,8.92,4.57,4.57,0,0,1,.44.29S529,430.93,541.58,430.81Z"/><path class="cls-7" d="M518.67,421l-.06.23.49.06A4.57,4.57,0,0,0,518.67,421Z"/><path class="cls-8" d="M457.57,341.56A17.69,17.69,0,1,1,491.25,331a333.51,333.51,0,0,1,99.83-4.37,17.69,17.69,0,1,1,34.34,8.11,64.21,64.21,0,0,1,9.55,4.66c-.53-9.33-4-19.52-6.67-26.18a10.32,10.32,0,0,0-.66-19.57,16.76,16.76,0,0,1-3.69.12c-.6,0-1.2-.12-1.79-.22l-.38.1,0-.17c-23-4.2-38.54-47.17-38.54-47.17s-14.82,25.19-48.91,25.94S480.2,288,480.2,288s-7.16,7.16-14.08,5.43c-.82-.2-1.37-1-1.72-2.17a11.57,11.57,0,0,0-11.22,20.23c-8.78,19.71-8.86,31.92-8.29,37a8.4,8.4,0,0,1,1.06-.81A89,89,0,0,1,457.57,341.56Zm125.21-41.91c1.19,0,2.16,1.7,2.16,3.79s-1,3.79-2.16,3.79-2.16-1.7-2.16-3.79S581.59,299.64,582.78,299.64ZM529.28,314a1.48,1.48,0,0,1,2,.45c3.34,5.22,8.68,5.54,15.87,1a6,6,0,0,0,2.5-6.49c-2.82-11.6-.52-28.15-.42-28.85a1.48,1.48,0,0,1,2.94.42c0,.17-2.32,16.69.36,27.73a8.94,8.94,0,0,1-3.79,9.69c-3.85,2.46-7.4,3.68-10.53,3.68-3.85,0-7.07-1.85-9.43-5.54A1.48,1.48,0,0,1,529.28,314Zm-31.1-11.47c1.19,0,2.19,1.66,2.22,3.76s-.91,3.81-2.1,3.82-2.19-1.66-2.22-3.76S497,302.57,498.18,302.55Z"/><path class="cls-8" d="M518.06,368.53c4.95,3.18,13,6.31,26,7.57,11.32,1.1,18.87-.59,23.9-3.15a10.92,10.92,0,0,0,.07-19.44c-5.18-2.72-12.73-5.07-23.36-5.07-12,0-20.36,2.58-25.82,5.28A8.55,8.55,0,0,0,518.06,368.53ZM529.79,357a1.48,1.48,0,0,1,2.08-.28c.06,0,5.79,4.33,11.74,3.23,3.27-.6,6.07-2.75,8.33-6.37a1.48,1.48,0,1,1,2.52,1.57c-2.72,4.37-6.2,7-10.33,7.72a14.11,14.11,0,0,1-2.54.23c-6.17,0-11.27-3.84-11.52-4A1.48,1.48,0,0,1,529.79,357Z"/><path class="cls-9" d="M530.07,359.1c.24.18,5.34,4,11.52,4a14.11,14.11,0,0,0,2.54-.23c4.13-.75,7.61-3.35,10.33-7.72a1.48,1.48,0,1,0-2.52-1.57c-2.26,3.63-5.06,5.77-8.33,6.37-5.95,1.09-11.68-3.19-11.74-3.23a1.48,1.48,0,0,0-1.8,2.36Z"/><path class="cls-9" d="M538.26,321.61c3.13,0,6.68-1.22,10.53-3.68a8.94,8.94,0,0,0,3.79-9.69c-2.68-11-.39-27.57-.36-27.73a1.48,1.48,0,0,0-2.94-.42c-.1.7-2.4,17.25.42,28.85a6,6,0,0,1-2.5,6.49c-7.19,4.58-12.53,4.26-15.87-1a1.48,1.48,0,0,0-2.5,1.6C531.19,319.76,534.41,321.61,538.26,321.61Z"/><ellipse class="cls-9" cx="582.78" cy="303.44" rx="2.16" ry="3.79"/><ellipse class="cls-9" cx="498.24" cy="306.34" rx="2.16" ry="3.79" transform="translate(-4.75 7.86) rotate(-0.9)"/><path class="cls-8" d="M473.3,317.51a17.69,17.69,0,0,0-15.74,24A168.59,168.59,0,0,1,491.25,331,17.7,17.7,0,0,0,473.3,317.51Z"/><path class="cls-10" d="M473.3,317.51a17.69,17.69,0,0,0-15.74,24A168.59,168.59,0,0,1,491.25,331,17.7,17.7,0,0,0,473.3,317.51Z"/><path class="cls-8" d="M626.24,328.56a17.69,17.69,0,0,0-35.16-2c15.69,1.94,26.75,5.09,34.34,8.11A17.66,17.66,0,0,0,626.24,328.56Z"/><path class="cls-10" d="M626.24,328.56a17.69,17.69,0,0,0-35.16-2c15.69,1.94,26.75,5.09,34.34,8.11A17.66,17.66,0,0,0,626.24,328.56Z"/><path class="cls-11" d="M558.5,407.72a29.82,29.82,0,0,0-.12,3.81c8.42-2.93,20.73-6.61,39.4-11.67,36.16-9.8,41.48-40.54,42.17-52.19a8.41,8.41,0,0,0-3.81-7.55l-1.17-.73a31.41,31.41,0,0,1-.83,9.86c-4.45,16.49-92.44,48-92.44,48l-96.33-45.94a16.12,16.12,0,0,1-.49-2.74,8.3,8.3,0,0,0-2.74,7.18c1,8.64,7,26.22,36.32,38.29,19.38,7.15,33.65,13.39,43.48,18.09a31.59,31.59,0,0,1,5.79-8.21C536.27,395.37,558.5,407.72,558.5,407.72Z"/><path class="cls-11" d="M558.38,411.52a29.82,29.82,0,0,1,.12-3.81s-22.23-12.35-30.75-3.83a31.59,31.59,0,0,0-5.79,8.21,186.3,186.3,0,0,1,17.28,9.08C542.41,418.29,546.52,415.65,558.38,411.52Z"/><path class="cls-11" d="M541.7,397.22s88-31.49,92.44-48a31.41,31.41,0,0,0,.83-9.86,64.21,64.21,0,0,0-9.55-4.66,17.7,17.7,0,0,1-34.34-8.11A333.51,333.51,0,0,0,491.25,331a17.69,17.69,0,0,1-33.69,10.59,89,89,0,0,0-11.63,6.17,8.4,8.4,0,0,0-1.06.81,16.12,16.12,0,0,0,.49,2.74Zm-22.85-43.51c5.46-2.7,13.82-5.28,25.82-5.28,10.63,0,18.18,2.35,23.36,5.07a10.92,10.92,0,0,1-.07,19.44c-5,2.56-12.59,4.25-23.9,3.15-13-1.26-21-4.39-26-7.57A8.55,8.55,0,0,1,518.85,353.71Z"/><path class="cls-11" d="M474.84,352.86A17.7,17.7,0,0,0,491.25,331a168.59,168.59,0,0,0-33.69,10.59A17.7,17.7,0,0,0,474.84,352.86Z"/><path class="cls-11" d="M590.89,330.1a17.69,17.69,0,0,0,34.53,4.61c-7.59-3-18.65-6.17-34.34-8.11A17.78,17.78,0,0,0,590.89,330.1Z"/><path class="cls-6" d="M835.23,362.81c-2.37-3.06-7.52-7.15-11.21-8.32-9.4-3-27.45.53-27.45.53a24.54,24.54,0,0,0,2.28-7.79c.17-2.72-.72-5.65-2.91-7.26s-5.34-1.56-7.89-.54a24.54,24.54,0,0,0-6.76,4.69l-23,20.17.1.12s-5.4,5.34,1.32,16.94q.43.76.88,1.47l.3.47c.2.31.4.62.6.92l.34.48c.19.28.39.56.59.83l.38.49.57.74.35.43.6.72.41.46.56.62.42.44.56.58.39.38.59.57.37.34.61.56.36.3.63.53.33.26.65.52.29.22.68.51.27.19.69.5.22.15.74.5.13.08.81.52.07,0,.85.53c8.14.8,15.7,1.41,24.47,2.42,6.64.77,13.57,1.5,19.82-.85,9.24-3.47,17.23-12.47,18.56-22.25C838.35,371.45,838.05,366.45,835.23,362.81Z"/><path class="cls-6" d="M763.32,386.74l.35.43Z"/><path class="cls-6" d="M768.18,391.83l.36.3Z"/><path class="cls-6" d="M772.08,394.86l.22.15Z"/><path class="cls-6" d="M771.12,394.18l.27.19Z"/><path class="cls-6" d="M773,395.51l.13.08Z"/><path class="cls-6" d="M760.55,382.82l.3.47Z"/><path class="cls-6" d="M766.61,390.37l-.39-.38Z"/><path class="cls-6" d="M767.2,390.94l.37.34Z"/><path class="cls-6" d="M762.38,385.51l.38.49Z"/><path class="cls-6" d="M761.46,384.21l.34.48Z"/><path class="cls-6" d="M774,396.16l-.07,0Z"/><path class="cls-6" d="M765.24,389l.42.44Z"/><path class="cls-6" d="M764.28,387.89l.41.46Z"/><path class="cls-6" d="M769.17,392.66l.33.26Z"/><path class="cls-6" d="M770.15,393.45l.29.22Z"/><path class="cls-6" d="M758.35,364.41l-.1-.12h0Z"/><path class="cls-12" d="M472.65,468c-6.23,3.61-12.57,7-19.1,10s-13.14,5.84-19.93,8.24l-2.54.92c-.84.31-1.69.61-2.55.88l-5.15,1.65c-1.7.61-3.45,1-5.19,1.54s-3.47,1-5.21,1.52a138.28,138.28,0,0,0,21.19-4.86c3.5-1,6.88-2.33,10.3-3.57.86-.3,1.69-.67,2.53-1l2.51-1.07,2.51-1.07c.83-.36,1.65-.77,2.47-1.15,1.63-.8,3.28-1.56,4.9-2.39l4.82-2.55c3.16-1.8,6.31-3.61,9.35-5.61a117.17,117.17,0,0,0,17.23-13.26A207.92,207.92,0,0,1,472.65,468Z"/><path class="cls-12" d="M739,483.48c-5-.42-10-.69-14.94-1-2.49-.12-5-.37-7.46-.56l-7.46-.58c-2.49-.17-5-.43-7.44-.67l-7.44-.72c-2.48-.2-4.95-.56-7.42-.83s-4.95-.57-7.41-.9c-4.92-.73-9.86-1.33-14.75-2.27-4.91-.78-9.77-1.84-14.62-2.91l-3.62-.88-1.81-.44-1.79-.5-3.59-1c-1.2-.33-2.36-.77-3.54-1.15l-1.77-.57c-.59-.21-1.16-.44-1.74-.66-1.16-.45-2.33-.86-3.46-1.39l-1.7-.76-1.66-.85c-.56-.27-1.1-.59-1.63-.9a14.18,14.18,0,0,1-1.56-1,14.23,14.23,0,0,0,1.47,1.17c.51.36,1,.73,1.56,1s1.07.65,1.61,1l1.66.88c1.1.61,2.25,1.1,3.39,1.63.57.26,1.14.53,1.72.78l1.75.7a127.8,127.8,0,0,0,14.31,4.66,250.72,250.72,0,0,0,29.5,5.7c2.48.32,5,.57,7.46.85l3.73.42,1.87.21,1.87.15,7.48.56,3.74.28c1.25.1,2.5.12,3.75.18,5,.19,10,.45,15,.5S734,483.56,739,483.48Z"/><path class="cls-12" d="M760.89,495.11c-1.08.07-2.17.1-3.25.15s-2.17.1-3.25.12-2.17.08-3.26.06l-3.26,0-3.26,0c-2.18,0-4.35-.06-6.53-.11L724.95,495a95.46,95.46,0,0,0,13,2.1,120.37,120.37,0,0,0,13.19.59,93.12,93.12,0,0,0,13.19-1.07,51.32,51.32,0,0,0,12.72-3.6,106.94,106.94,0,0,1-12.93,1.88C763.06,494.93,762,495,760.89,495.11Z"/><path class="cls-13" d="M623.46,476.28c-1.07-.9-2.19-1.87-3.35-2.92q-.87-.79-1.77-1.64T616.52,470c-1.22-1.21-2.47-2.5-3.72-3.87l-.94-1q-.94-1.06-1.88-2.17t-1.87-2.29q-1.4-1.76-2.77-3.65-.91-1.26-1.8-2.58a92.52,92.52,0,0,1-5.08-8.45q-.4-.75-.78-1.51c-.37-.73-.73-1.48-1.08-2.23l-7.5,2.33.59,3.27c.27,1.52.47,3.05.71,4.58s.45,3.06.64,4.59c.4,3.06.68,6.14,1,9.22l.27,4.63c0,.77.11,1.54.11,2.32l0,2.32c.09,3.09-.08,6.2-.29,9.28-.19,1.54-.35,3.08-.56,4.61s-.64,3-1,4.53q.17-2.32.37-4.6l.08-4.6c0-1.53-.08-3.06-.11-4.59s-.14-3.06-.24-4.58c-.4-6.11-1-12.2-1.84-18.28-.5-4-1.07-8.08-1.66-12.11l-7.24,2.25c0,3.67-.15,7.35-.45,11a170.24,170.24,0,0,1-6.94,35.46c-1.74,5.78-3.79,11.45-6,17.05-1.15,2.78-2.29,5.57-3.56,8.31-.63,1.37-1.22,2.76-1.87,4.11l-2,4.05-1,2-1.05,2-2.12,4c-1.43,2.64-3,5.23-4.47,7.84s-3.18,5.11-4.76,7.66-3.33,5-5,7.48a358.17,358.17,0,0,0,16.85-31.74l1.87-4.08c.62-1.36,1.19-2.74,1.79-4.11,1.21-2.73,2.29-5.52,3.39-8.3.56-1.38,1.06-2.79,1.58-4.19s1.05-2.79,1.52-4.21c.95-2.83,1.92-5.65,2.75-8.52s1.66-5.73,2.45-8.61l1.06-4.35c.36-1.45.63-2.91,1-4.37,1.25-5.83,2.19-11.73,2.86-17.66q.56-5.19.79-10.41l-12.48,3.87A132.48,132.48,0,0,1,561,465.17c-1.54,3.35-3.2,6.66-5,9.88-1,1.58-1.86,3.19-2.87,4.74-.5.77-1,1.56-1.5,2.32L550,484.38a94.75,94.75,0,0,1-14.73,16.39,139.72,139.72,0,0,0,23.68-36.51c1.5-3.31,2.85-6.68,4.11-10.09.22-.59.43-1.18.65-1.78l-13.86,4.29a183.41,183.41,0,0,1-23.14,30l-.08.08-1.81,1.89-.13.14-1.77,1.8-.18.18L521,492.44l-.26.25-1.68,1.62-.3.29-1.64,1.54-.35.32-1.6,1.47-.38.35-1.59,1.42-.4.35-1.56,1.36-.43.37-1.54,1.32-.44.37-1.51,1.26-.47.39-1.49,1.22-.48.39-1.48,1.18-.48.38-1.47,1.14-.48.37-1.46,1.11-.48.36-1.45,1.08-.47.35-1.44,1-.46.34-1.44,1-.45.32-1.42,1-.44.3-1.42,1-.41.28-1.43.95-.38.25-1.42.92-.37.24-1.42.9-.33.21-1.42.88-.3.18-1.4.85-.28.17-1.4.82-.25.15-1.39.79-.22.12-1.38.77-.19.11-1.36.73-.17.09-1.33.7-.15.08-1.32.67-.11.06-1.29.64-.09,0-1.27.6-.07,0-1.24.56,0,0-1.2.52h0l-1.16.48h0l-1.1.43h0l-1,.38h0l-.31.11C438.34,558,418.07,617.7,409.13,651h9.74a226.69,226.69,0,0,1,14.38-21c1.95-2.46,3.85-5,5.91-7.32,1-1.19,2-2.41,3.05-3.58l3.13-3.52c1-1.19,2.14-2.3,3.21-3.44s2.15-2.29,3.27-3.39l6.71-6.58c9-8.63,17.57-17.7,25.93-27q6.25-7,12.35-14.08c4.09-4.72,8.05-9.55,12-14.4-7.16,10.26-14.91,20.11-23,29.63-4,4.79-8.27,9.41-12.5,14-2.16,2.26-4.3,4.56-6.52,6.77l-3.3,3.34-3.37,3.28-6.71,6.52c-1.12,1.08-2.17,2.23-3.26,3.34s-2.18,2.22-3.22,3.38c-4.27,4.53-8.3,9.28-12.28,14.07s-7.71,9.8-11.32,14.88c-1.2,1.66-2.37,3.35-3.53,5H435l.48-.67c2.44-3.28,5-6.48,7.76-9.53a133.41,133.41,0,0,1,18-16.72c3.21-2.48,6.36-5.05,9.49-7.65s6.22-5.24,9.29-7.9q9.2-8,18.16-16.35a232.67,232.67,0,0,1-17,17.64c-3,2.83-6,5.53-9.1,8.22s-6.26,5.26-9.48,7.79c-1.62,1.26-3.17,2.52-4.76,3.78s-3.1,2.6-4.59,4c-3.06,2.66-5.91,5.53-8.77,8.4s-5.55,5.92-8.17,9h28.38q10.07-6.69,19.74-14l3.74-2.78c1.26-.92,2.44-1.92,3.67-2.88l7.29-5.81,7.11-6c1.18-1,2.39-2,3.53-3l3.44-3.14c2.29-2.11,4.62-4.17,6.87-6.31l6.65-6.55c1.11-1.09,2.26-2.15,3.33-3.28l3.19-3.41q3.18-3.42,6.42-6.81a268,268,0,0,1-25.27,27.63L511,617.86c-1.13,1.08-2.33,2.08-3.5,3.12l-7,6.19-7.3,5.89c-1.23,1-2.41,2-3.67,2.92l-3.75,2.81c-5,3.78-10.15,7.31-15.3,10.84l-2.1,1.35h20.77c39.57-26.67,90.91-72.87,148.92-152.9h0l.34-.46s-.74-11.12-5.19-14.08c-1.08-.72-4.15-2.72-8.2-6ZM489.63,539.67l-9.35,8.46q-2.25,2.21-4.52,4.39c-1.5,1.47-3.06,2.87-4.48,4.42-2.9,3-5.88,6-8.59,9.17l-2.1,2.34-1,1.17-1,1.22-4,4.86-3.78,5c-.65.82-1.21,1.7-1.81,2.56l-1.78,2.58c-.61.85-1.15,1.74-1.7,2.63l-1.66,2.66c-.56.88-1,1.81-1.56,2.72s-1.05,1.81-1.5,2.76l-1.42,2.8-1.29,2.87a44.36,44.36,0,0,0-2.11,5.93,37,37,0,0,1,1.53-6.15l1.07-3,1.23-2.93c.39-1,.9-1.92,1.36-2.88s.91-1.92,1.43-2.84l1.56-2.77c.52-.92,1-1.86,1.62-2.74,1.15-1.78,2.22-3.62,3.46-5.34l3.71-5.17,4-5,1-1.24,1-1.19,2.1-2.38c2.77-3.21,5.8-6.17,8.77-9.19,1.47-1.53,3.08-2.9,4.63-4.34s3.12-2.85,4.7-4.26c3.25-2.7,6.51-5.39,9.81-8s6.8-5,10.25-7.43C496,534.21,492.83,536.94,489.63,539.67Z"/><path class="cls-13" d="M594.79,438.06q-1-2.46-1.88-5.06c-.77-2.3-1.46-4.69-2-7.15q-.44-1.85-.8-3.75c-.48-2.54-.84-5.15-1.08-7.84a4.56,4.56,0,0,0-.12-.66l-.06-.2a4.56,4.56,0,0,0-.15-.44c0-.07-.05-.14-.08-.21a4.48,4.48,0,0,0-.27-.49c-.07-.11-.14-.21-.22-.31l-.12-.15a4.5,4.5,0,0,0-1.09-1,4.35,4.35,0,0,0-1.66-.62c-5.71-.86-16.54-1.28-18.71,7.37a140,140,0,0,1-16.7,39.09l13.86-4.29c1-2.83,1.93-5.7,2.8-8.58,1-3.49,2-7,2.77-10.58s1.53-7.14,2.06-10.77a83.4,83.4,0,0,1-1,11q-.83,5.46-2.17,10.83c-.61,2.48-1.31,4.94-2.08,7.38l12.48-3.87c.11-2.49.17-5,.14-7.47a91.92,91.92,0,0,0-1.7-17.85,59.1,59.1,0,0,1,1.87,8.82q.64,4.47.92,9c.13,2.35.17,4.71.16,7.07l7.24-2.25q-.45-3.06-.92-6.12l-2.84-18.24c1.84,5.89,3.28,11.9,4.54,17.93.42,1.93.79,3.88,1.14,5.83l7.5-2.33-.41-.88Q595.46,439.71,594.79,438.06Z"/><path class="cls-13" d="M588,411.81a4.42,4.42,0,0,0-1.09-1A4.5,4.5,0,0,1,588,411.81Z"/><path class="cls-13" d="M588.58,412.76c0,.07.06.14.08.21S588.61,412.83,588.58,412.76Z"/><path class="cls-13" d="M588.09,412c.08.1.15.2.22.31C588.25,412.17,588.17,412.06,588.09,412Z"/><path class="cls-13" d="M588.82,413.41l.06.2Z"/><path class="cls-5" d="M489.16,651H698.42l-60.35-152.9C580.06,578.11,528.72,624.32,489.16,651ZM622,576.49c.91,3.72,1.8,7.45,2.8,11.15s2,7.4,3.08,11.06,2.21,7.32,3.44,10.94c.59,1.82,1.24,3.61,1.88,5.41s1.33,3.58,2,5.35c1.41,3.55,2.91,7.07,4.61,10.49a102.07,102.07,0,0,0,5.59,10,71.73,71.73,0,0,1-6.55-9.53c-1-1.66-1.87-3.38-2.77-5.09s-1.7-3.47-2.48-5.24a172.69,172.69,0,0,1-7.9-21.76q-3.24-11.11-5.43-22.47A214.38,214.38,0,0,1,617,554Q619.32,565.3,622,576.49ZM601.84,588.1c.6,2.86,1.1,5.75,1.62,8.62s.94,5.78,1.35,8.67.74,5.81,1.07,8.72.57,5.83.68,8.76a92.32,92.32,0,0,1-.41,17.57c-.11-5.85-.7-11.64-1.32-17.42s-1.39-11.55-2.21-17.32-1.64-11.53-2.47-17.31-1.67-11.55-2.4-17.36C599.37,576.67,600.67,582.37,601.84,588.1Z"/><path class="cls-5" d="M625.71,599.33a172.69,172.69,0,0,0,7.9,21.76c.78,1.77,1.62,3.51,2.48,5.24s1.79,3.43,2.77,5.09a71.73,71.73,0,0,0,6.55,9.53,102.07,102.07,0,0,1-5.59-10c-1.7-3.42-3.2-6.94-4.61-10.49-.72-1.77-1.36-3.57-2-5.35s-1.29-3.6-1.88-5.41c-1.23-3.62-2.39-7.26-3.44-10.94s-2.11-7.36-3.08-11.06-1.88-7.42-2.8-11.15q-2.65-11.19-5-22.49a214.38,214.38,0,0,0,3.27,22.86Q622.47,588.2,625.71,599.33Z"/><path class="cls-5" d="M602.61,605.71q1.24,8.65,2.21,17.32c.62,5.78,1.21,11.57,1.32,17.42a92.32,92.32,0,0,0,.41-17.57c-.11-2.93-.43-5.84-.68-8.76s-.66-5.82-1.07-8.72-.87-5.79-1.35-8.67-1-5.76-1.62-8.62c-1.17-5.73-2.47-11.44-4.1-17.06.73,5.81,1.56,11.59,2.4,17.36S601.83,599.94,602.61,605.71Z"/><path class="cls-5" d="M489.15,651h0c39.57-26.67,90.91-72.87,148.91-152.9h0C580.06,578.12,528.72,624.32,489.15,651Z"/><path class="cls-5" d="M464.14,532h0l1.1-.43h0l1.16-.48h0l1.2-.52,0,0,1.24-.56.07,0,1.27-.6.09,0,1.29-.64.11-.06,1.32-.67.15-.08,1.33-.7.17-.09,1.36-.73.19-.11,1.38-.77.22-.12,1.39-.79.25-.15,1.4-.82.28-.17,1.4-.85.3-.18,1.42-.88.33-.21,1.42-.9.37-.24,1.42-.92.38-.25,1.43-.95.41-.28,1.42-1,.44-.3,1.42-1,.45-.32,1.44-1,.46-.34,1.44-1,.47-.35,1.45-1.08.48-.36,1.46-1.11.48-.37,1.47-1.14.48-.38,1.48-1.18.48-.39,1.49-1.22.47-.39,1.51-1.26.44-.37,1.54-1.32.43-.37,1.56-1.36.4-.35,1.59-1.42.38-.35,1.6-1.47.35-.32,1.64-1.54.3-.29,1.68-1.62.26-.25,1.71-1.69.18-.18,1.77-1.8.13-.14,1.81-1.89.08-.08a183.4,183.4,0,0,0,23.14-30c-14.95,4.63-25.47,7.86-26.27,8s-11.91-4.43-26.83-11L482,482.81l-4,10.56h0l-14.92,39h0Zm24.44-41.07a59.76,59.76,0,0,1,1.33-7.9,67.49,67.49,0,0,1,2.29-7.66,47,47,0,0,1,3.29-7.3c-.47,2.64-1,5.22-1.63,7.79s-1.18,5.13-1.78,7.68l-1.78,7.66c-.58,2.56-1.1,5.13-1.73,7.75A38.42,38.42,0,0,1,488.58,490.89Z"/><path class="cls-5" d="M563.17,419.77a4.06,4.06,0,0,1-.55,1.89,5.16,5.16,0,0,0,1.18.39c6.79,1.36-21.49,22.23-21.49,22.23l-24.54-18.72a36.75,36.75,0,0,1,.83-4.31l-5.16-.59-16.72,33.1c14.92,6.55,25.93,11.18,26.83,11s11.32-3.41,26.27-8a140.14,140.14,0,0,0,16.63-38.84C564.41,418.44,563.17,419.07,563.17,419.77Z"/><polygon class="cls-5" points="482.05 482.81 478.01 493.36 478.01 493.36 482.05 482.81"/><path class="cls-5" d="M542.32,444.27S570.6,423.4,563.81,422a5.16,5.16,0,0,1-1.18-.39c-2.12,4-10.27,9-21,9.16-12.6.12-22.48-9.51-22.48-9.51l-.49-.06a36.75,36.75,0,0,0-.83,4.31Z"/><path class="cls-5" d="M490.29,491.17l1.78-7.66c.6-2.55,1.21-5.11,1.78-7.68s1.16-5.15,1.63-7.79a47,47,0,0,0-3.29,7.3A67.49,67.49,0,0,0,489.9,483a59.76,59.76,0,0,0-1.33,7.9,38.42,38.42,0,0,0,0,8C489.19,496.3,489.71,493.73,490.29,491.17Z"/><path class="cls-5" d="M513.22,499.71l-.4.35Z"/><path class="cls-5" d="M511.26,501.42l-.43.37Z"/><path class="cls-5" d="M515.19,497.93l-.38.35Z"/><path class="cls-5" d="M517.14,496.14l-.35.32Z"/><path class="cls-5" d="M505.38,506.36l-.48.39Z"/><path class="cls-5" d="M521,492.44l-.26.25Z"/><path class="cls-5" d="M526.69,486.66l-.08.08Z"/><path class="cls-5" d="M503.43,507.92l-.48.38Z"/><path class="cls-5" d="M507.34,504.75l-.47.39Z"/><path class="cls-5" d="M524.8,488.63l-.13.14Z"/><path class="cls-5" d="M522.9,490.57l-.18.18Z"/><path class="cls-5" d="M509.29,503.12l-.44.37Z"/><path class="cls-5" d="M519.07,494.31l-.3.29Z"/><path class="cls-5" d="M501.48,509.45l-.48.37Z"/><path class="cls-5" d="M473.23,527.81l-.15.08Z"/><path class="cls-5" d="M470.35,529.25l-.09,0Z"/><path class="cls-5" d="M477.87,525.28l-.22.12Z"/><path class="cls-5" d="M476.28,526.18l-.19.11Z"/><path class="cls-5" d="M474.73,527l-.17.09Z"/><path class="cls-5" d="M471.76,528.55l-.11.06Z"/><polygon class="cls-5" points="463.09 532.34 463.09 532.34 463.09 532.34 463.09 532.34"/><path class="cls-5" d="M464.15,532h0Z"/><path class="cls-5" d="M467.69,530.49l0,0Z"/><path class="cls-5" d="M466.45,531h0Z"/><path class="cls-5" d="M465.27,531.52h0Z"/><path class="cls-5" d="M469,529.89l-.07,0Z"/><path class="cls-5" d="M493.8,515.13l-.45.32Z"/><path class="cls-5" d="M495.7,513.77l-.46.34Z"/><path class="cls-5" d="M490.07,517.7l-.41.28Z"/><path class="cls-5" d="M491.93,516.43l-.44.3Z"/><path class="cls-5" d="M497.61,512.37l-.47.35Z"/><path class="cls-5" d="M499.53,510.93l-.48.36Z"/><path class="cls-5" d="M479.51,524.34l-.25.15Z"/><path class="cls-5" d="M488.22,518.93l-.38.25Z"/><path class="cls-5" d="M482.89,522.32l-.3.18Z"/><path class="cls-5" d="M481.19,523.35l-.28.17Z"/><path class="cls-5" d="M484.64,521.24l-.33.21Z"/><path class="cls-5" d="M486.43,520.1l-.37.24Z"/><path class="cls-14" d="M479.12,546.84q-2.36,2.12-4.7,4.26c-1.54,1.44-3.16,2.81-4.63,4.34-3,3-6,6-8.77,9.19l-2.1,2.38-1,1.19-1,1.24-4,5-3.71,5.17c-1.24,1.72-2.31,3.56-3.46,5.34-.58.88-1.1,1.81-1.62,2.74l-1.56,2.77c-.52.93-.95,1.9-1.43,2.84s-1,1.89-1.36,2.88l-1.23,2.93-1.07,3a37,37,0,0,0-1.53,6.15,44.36,44.36,0,0,1,2.11-5.93l1.29-2.87,1.42-2.8c.45-.94,1-1.84,1.5-2.76s1-1.84,1.56-2.72l1.66-2.66c.55-.89,1.09-1.78,1.7-2.63l1.78-2.58c.6-.86,1.16-1.74,1.81-2.56l3.78-5,4-4.86,1-1.22,1-1.17,2.1-2.34c2.71-3.19,5.7-6.14,8.59-9.17,1.41-1.55,3-2.95,4.48-4.42s3-2.91,4.52-4.39l9.35-8.46c3.2-2.73,6.4-5.46,9.55-8.27-3.45,2.42-6.85,4.93-10.25,7.43S482.37,544.14,479.12,546.84Z"/><path class="cls-14" d="M423.29,645.94q5.43-7.62,11.32-14.88c4-4.8,8-9.54,12.28-14.07,1-1.16,2.15-2.25,3.22-3.38s2.14-2.26,3.26-3.34l6.71-6.52,3.37-3.28,3.3-3.34c2.22-2.21,4.35-4.51,6.52-6.77,4.24-4.61,8.47-9.23,12.5-14,8.14-9.52,15.88-19.37,23-29.63-3.94,4.85-7.91,9.68-12,14.4s-8.18,9.43-12.35,14.08c-8.36,9.27-16.94,18.33-25.93,27l-6.71,6.58c-1.13,1.1-2.18,2.26-3.27,3.39s-2.19,2.25-3.21,3.44l-3.13,3.52c-1,1.17-2,2.39-3.05,3.58-2.05,2.37-4,4.87-5.91,7.32a226.69,226.69,0,0,0-14.38,21h.89C420.92,649.29,422.09,647.6,423.29,645.94Z"/><path class="cls-14" d="M436.33,651q3.94-4.65,8.17-9c2.86-2.87,5.71-5.75,8.77-8.4,1.49-1.37,3.06-2.65,4.59-4s3.14-2.52,4.76-3.78q4.83-3.79,9.48-7.79c3.07-2.69,6.15-5.39,9.1-8.22a232.67,232.67,0,0,0,17-17.64q-9,8.33-18.16,16.35c-3.08,2.66-6.16,5.31-9.29,7.9s-6.27,5.17-9.49,7.65a133.41,133.41,0,0,0-18,16.72c-2.75,3-5.31,6.24-7.76,9.53L435,651h1.34Z"/><path class="cls-14" d="M470.48,649.63c5.16-3.53,10.32-7.06,15.3-10.84l3.75-2.81c1.26-.93,2.45-1.95,3.67-2.92l7.3-5.89,7-6.19c1.16-1,2.37-2,3.5-3.12l3.38-3.26A268,268,0,0,0,539.69,587q-3.24,3.39-6.42,6.81l-3.19,3.41c-1.07,1.13-2.22,2.18-3.33,3.28L520.11,607c-2.25,2.14-4.58,4.21-6.87,6.31l-3.44,3.14c-1.15,1.05-2.36,2-3.53,3l-7.11,6-7.29,5.81c-1.22,1-2.41,2-3.67,2.88L484.45,637q-9.65,7.28-19.74,14h3.67Z"/><path class="cls-14" d="M588.84,457.21c.81,6.08,1.44,12.17,1.84,18.28.1,1.53.22,3.06.24,4.58s.13,3.06.11,4.59l-.08,4.6q-.21,2.28-.37,4.6.51-2.25,1-4.53c.21-1.53.37-3.07.56-4.61.21-3.09.38-6.19.29-9.28l0-2.32c0-.78-.08-1.54-.11-2.32l-.27-4.63c-.28-3.08-.57-6.16-1-9.22-.2-1.53-.4-3.06-.64-4.59s-.44-3.06-.71-4.58l-.59-3.27-1.92.6C587.77,449.13,588.34,453.17,588.84,457.21Z"/><path class="cls-14" d="M583.41,420.74,586.26,439q.47,3.06.92,6.12l1.92-.6c-.35-1.95-.72-3.89-1.14-5.83C586.69,432.63,585.25,426.63,583.41,420.74Z"/><path class="cls-14" d="M577.76,458.19c-.67,5.93-1.61,11.83-2.86,17.66-.33,1.45-.61,2.92-1,4.37l-1.06,4.35c-.79,2.88-1.54,5.77-2.45,8.61s-1.8,5.69-2.75,8.52c-.47,1.42-1,2.81-1.52,4.21s-1,2.81-1.58,4.19c-1.09,2.78-2.17,5.57-3.39,8.3-.6,1.37-1.16,2.75-1.79,4.11l-1.87,4.08a358.17,358.17,0,0,1-16.85,31.74c1.69-2.48,3.37-5,5-7.48s3.2-5.09,4.76-7.66,3-5.19,4.47-7.84l2.12-4,1.05-2,1-2,2-4.05c.66-1.35,1.25-2.74,1.87-4.11,1.27-2.73,2.41-5.52,3.56-8.31,2.23-5.6,4.28-11.28,6-17.05a170.24,170.24,0,0,0,6.94-35.46c.3-3.66.45-7.33.45-11l-1.39.43Q578.32,453,577.76,458.19Z"/><path class="cls-14" d="M578.86,431.28a59.1,59.1,0,0,0-1.87-8.82,91.92,91.92,0,0,1,1.7,17.85c0,2.49,0,5-.14,7.47l1.39-.43c0-2.36,0-4.72-.16-7.07Q579.5,435.76,578.86,431.28Z"/><path class="cls-14" d="M563,454.17c-1.26,3.41-2.62,6.78-4.11,10.09a139.72,139.72,0,0,1-23.68,36.51A94.75,94.75,0,0,0,550,484.38l1.59-2.27c.52-.76,1-1.55,1.5-2.32,1-1.54,1.92-3.15,2.87-4.74,1.81-3.22,3.47-6.52,5-9.88a132.48,132.48,0,0,0,5.12-13.52l-2.39.74C563.47,453,563.26,453.58,563,454.17Z"/><path class="cls-14" d="M570.32,433.44a83.4,83.4,0,0,0,1-11c-.53,3.63-1.24,7.22-2.06,10.77s-1.74,7.08-2.77,10.58c-.87,2.88-1.78,5.75-2.8,8.58l2.39-.74c.77-2.44,1.47-4.9,2.08-7.38Q569.49,438.91,570.32,433.44Z"/><path class="cls-15" d="M276.49,782.88a8.37,8.37,0,0,1-4-7.1V681.37a7.73,7.73,0,0,1,3.35-6.38q3.35-2.55,9.41-2.55h26.15v8.93l-2.55,19.94H298.33l-1.59-18q-.16-1.43-1.91-1.44h-6.7q-3.51,0-4.55,2.63a19.15,19.15,0,0,0-.88,7.42l3.35,79.58a.85.85,0,0,0,1,1h9.41q1.75,0,1.91-1L301.52,759h9.89v26.63H288.61Q280.47,785.67,276.49,782.88Z"/><path class="cls-16" d="M322.89,674.19q0-.8,6.54-1.28t12.92-.48h6.86a5.15,5.15,0,0,1,4.15,1.91,8.18,8.18,0,0,1,1.75,4.94l1.59,45.93-7.18,9.41,12.76,47.52-3,3.51h-9.41l-8.13-49.6-8.13.8-3.35,48.8h-7.34Zm22,50.08a.85.85,0,0,0,1-1V683.6l-2.39-2.39-11,1.12.48,42.58Z"/><path class="cls-17" d="M371.53,687.43l-2.87-7.65v-7.34h16.11l-1.44,113.23h-11.8Z"/><path class="cls-18" d="M401.36,672.44h25.2l6.54,113.23h-7l-5.74-42.42-12.76,6.06-3.51,36.36h-9.89Zm15,65.87q1-.32,1-1l1-57.25a.85.85,0,0,0-1-1l-6.86,1.59q-1,.16-1,1.59v56.14c0,.53.32.8,1,.8Z"/><path class="cls-2" d="M441.22,672.44h18.5l14.35,104h.64l3.51-104h9.25l-1.59,113.23H467.54L451.27,681.85h-.64V785.67h-9.41Z"/><path class="cls-19" d="M531.17,755.84h5.26v26.63h-14l-7.34,10.37,15.31,2.71.8,4.47-2.39,10.37q-2.07,8.45-10.84,8.45a17.8,17.8,0,0,1-2.71-.16l-15.95-2.23,1.59-7.65,18.82.8.48-6.38-16.27-4.94,8.61-15.79h-10l-6.54-6.7,3.19-94.25a9.32,9.32,0,0,1,3-6.3,10.46,10.46,0,0,1,7.73-2.79l2.07.16,24.56,3.19-2.55,25.68h-7.34V686.63q0-1.44-1.91-1.44h-9.89q-3.51,0-4.39,2.47a24.24,24.24,0,0,0-.88,7.58v74.64a.85.85,0,0,0,1,1h15.79q1.91,0,1.91-1v-12Z"/><path class="cls-15" d="M550.63,672.44h29.19V785.67h-9.25l-4.15-44.34h-8.13l-7.34,44.34h-7.5Zm18.18,61.4a.85.85,0,0,0,1-1V678.5a.85.85,0,0,0-1-1h-6.86a.85.85,0,0,0-1,1V733c0,.53.32.8,1,.8Z"/><path class="cls-16" d="M616.17,672.44h18.34A16.81,16.81,0,0,1,647,677.38,17.22,17.22,0,0,1,651.9,690l-4.78,86.6-9.73,9.09H616.17ZM635,774.34a2.62,2.62,0,0,0,1.44-2.07l1.75-88.35q0-1-1.91-1h-7.18a1.72,1.72,0,0,0-1,.32c-.32.21-.48.43-.48.64v90.27l1.44,1Z"/><path class="cls-17" d="M666.41,672.44h32.37v12.44H676v32.85h17.38v8l-16.59,2.87v40.67l23-2.87.48,16.11H662.74Z"/><path class="cls-18" d="M737.06,672.44h29.19v14H746.62v31.74H764v8l-16.59,2.87v56.62h-14Z"/><path class="cls-2" d="M779.64,672.44H812v12.44H789.2v32.85h17.38v8L790,728.57v40.67l23-2.87.48,16.11H776Zm4.62-13.56L802.6,645.8l5.58,9.09-20.41,9.57Z"/><rect class="cls-20" x="268.05" y="825.15" width="543.91" height="35.57"/><path class="cls-1" d="M279.65,854.6V831.25h8.27q12.44,0,12.44,11.38a11.51,11.51,0,0,1-3.39,8.71,12.52,12.52,0,0,1-9,3.26Zm5.26-19.07v14.8h2.61a7,7,0,0,0,5.36-2.05,7.78,7.78,0,0,0,1.95-5.59,7.06,7.06,0,0,0-1.93-5.25,7.36,7.36,0,0,0-5.41-1.91Z"/><path class="cls-1" d="M326.71,854.6h-14V831.25h13.47v4.28H318v5.19h7.64V845H318v5.34h8.74Z"/><path class="cls-1" d="M358.37,831.25l-8,23.35h-6l-7.95-23.35h5.67L347,847.5a11.64,11.64,0,0,1,.47,2.33h.1a13.16,13.16,0,0,1,.5-2.39l4.84-16.18Z"/><path class="cls-1" d="M379.5,855a10.87,10.87,0,0,1-8.17-3.26,11.72,11.72,0,0,1-3.16-8.51,12.56,12.56,0,0,1,3.21-9,11.11,11.11,0,0,1,8.5-3.42,10.6,10.6,0,0,1,8.08,3.27,12.07,12.07,0,0,1,3.09,8.63,12.36,12.36,0,0,1-3.2,8.87A11,11,0,0,1,379.5,855Zm.23-19.62a5.29,5.29,0,0,0-4.4,2.08,8.65,8.65,0,0,0-1.63,5.49,8.5,8.5,0,0,0,1.63,5.49,5.22,5.22,0,0,0,4.27,2,5.27,5.27,0,0,0,4.32-2,8.4,8.4,0,0,0,1.6-5.45,9.11,9.11,0,0,0-1.55-5.65A5,5,0,0,0,379.73,835.39Z"/><path class="cls-1" d="M420.13,853.77a15.39,15.39,0,0,1-6.68,1.24q-5.37,0-8.45-3.16a11.55,11.55,0,0,1-3.08-8.42,12.34,12.34,0,0,1,3.46-9.09,12.1,12.1,0,0,1,9-3.48,16.79,16.79,0,0,1,5.76.86v5.06a10.21,10.21,0,0,0-5.34-1.4,7.08,7.08,0,0,0-5.31,2.07,7.67,7.67,0,0,0-2,5.6,7.52,7.52,0,0,0,1.91,5.4,6.73,6.73,0,0,0,5.13,2,10.94,10.94,0,0,0,5.63-1.5Z"/><path class="cls-1" d="M439.88,831.25v4.07h-2v15.21h2v4.07h-9.17v-4.07h2V835.32h-2v-4.07Z"/><path class="cls-1" d="M461.58,855a10.87,10.87,0,0,1-8.17-3.26,11.72,11.72,0,0,1-3.16-8.51,12.56,12.56,0,0,1,3.21-9,11.11,11.11,0,0,1,8.5-3.42,10.6,10.6,0,0,1,8.08,3.27,12.07,12.07,0,0,1,3.09,8.63,12.36,12.36,0,0,1-3.2,8.87A11,11,0,0,1,461.58,855Zm.23-19.62a5.29,5.29,0,0,0-4.4,2.08,8.65,8.65,0,0,0-1.63,5.49,8.5,8.5,0,0,0,1.63,5.49,5.22,5.22,0,0,0,4.27,2,5.27,5.27,0,0,0,4.32-2,8.4,8.4,0,0,0,1.6-5.45,9.11,9.11,0,0,0-1.55-5.65A5,5,0,0,0,461.8,835.39Z"/><path class="cls-1" d="M506.47,854.6h-5.31l-9.62-14.67a21.21,21.21,0,0,1-1.17-1.94h-.07q.13,1.24.13,3.78V854.6h-5V831.25h5.67l9.26,14.21q.64,1,1.17,1.9h.07a25,25,0,0,1-.13-3.21V831.25h5Z"/><path class="cls-1" d="M540.81,854.6h-5.73l-1.66-5.19h-8.3l-1.64,5.19h-5.7l8.5-23.35h6.24Zm-8.6-9.23-2.51-7.85a10.23,10.23,0,0,1-.39-2.1h-.13a8.91,8.91,0,0,1-.41,2l-2.54,7.91Z"/><path class="cls-1" d="M566.1,854.6H552.2V831.25h5.26v19.08h8.65Z"/><path class="cls-1" d="M602.6,831.25v4.07h-2v15.21h2v4.07h-9.17v-4.07h2V835.32h-2v-4.07Z"/><path class="cls-1" d="M635.42,854.6h-5.31l-9.62-14.67a21.21,21.21,0,0,1-1.17-1.94h-.07q.13,1.24.13,3.78V854.6h-5V831.25h5.67l9.26,14.21q.64,1,1.17,1.9h.07a25,25,0,0,1-.13-3.21V831.25h5Z"/><path class="cls-1" d="M662.73,835.53h-8.24v5.73h7.57v4.27h-7.57v9.07h-5.26V831.25h13.5Z"/><path class="cls-1" d="M695.58,854.6h-5.73l-1.66-5.19h-8.3l-1.64,5.19h-5.7l8.5-23.35h6.24Zm-8.6-9.23-2.51-7.85a10.23,10.23,0,0,1-.39-2.1H684a8.91,8.91,0,0,1-.41,2L681,845.37Z"/><path class="cls-1" d="M728,854.6h-5.31L713,839.93a21.21,21.21,0,0,1-1.17-1.94h-.07q.13,1.24.13,3.78V854.6h-5V831.25h5.67l9.26,14.21q.64,1,1.17,1.9h.07a25,25,0,0,1-.13-3.21V831.25h5Z"/><path class="cls-1" d="M758.17,835.53h-6.66V854.6h-5.28V835.53h-6.63v-4.28h18.56Z"/><path class="cls-1" d="M777,831.25v4.07h-2v15.21h2v4.07h-9.17v-4.07h2V835.32h-2v-4.07Z"/><path class="cls-1" d="M802.73,854.6H788.82V831.25h5.26v19.08h8.65Z"/></svg>