<svg id="Camada_6" data-name="Camada 6" xmlns="http://www.w3.org/2000/svg" viewBox="0 0 804.21 896.64"><defs><style>.cls-1{fill:#f9a61a;}.cls-2{fill:none;}.cls-3{fill:#281114;}.cls-4{fill:#eddac5;}.cls-5{fill:#c8a077;}.cls-6{fill:#b58a59;}.cls-7{fill:#c49c73;}.cls-8{fill:#6b432c;}.cls-9{fill:#a1642a;opacity:0.86;}.cls-10{fill:#562718;}.cls-11{fill:#e4c397;}.cls-12{fill:#9b0c17;}.cls-13{fill:#770a17;}.cls-14{fill:#e04950;}.cls-15{fill:#719953;}.cls-16{fill:#e59757;}.cls-17{fill:#db2782;}.cls-18{fill:#39b5bd;}.cls-19{fill:#333742;}.cls-20{fill:#fff;}</style></defs><title>EXPORT_NEW</title><rect class="cls-1" x="152.5" y="86.94" width="526.23" height="526.23"/><path class="cls-2" d="M243.54,338.35l.07.07Z" transform="translate(-137.93 -80.18)"/><path class="cls-2" d="M244.29,339.25v0Z" transform="translate(-137.93 -80.18)"/><path class="cls-2" d="M243.19,338l.1.09Z" transform="translate(-137.93 -80.18)"/><path class="cls-2" d="M243.34,338.14l.09.09Z" transform="translate(-137.93 -80.18)"/><path class="cls-2" d="M243.06,337.88l.13.11Z" transform="translate(-137.93 -80.18)"/><path class="cls-2" d="M244.55,339.61l0,.06Z" transform="translate(-137.93 -80.18)"/><path class="cls-2" d="M245.64,341.53l.06.14Z" transform="translate(-137.93 -80.18)"/><path class="cls-2" d="M245.9,342.13l.06.15Z" transform="translate(-137.93 -80.18)"/><path class="cls-2" d="M245.37,341l.06.13Z" transform="translate(-137.93 -80.18)"/><path class="cls-2" d="M245.09,340.47l.06.11Z" transform="translate(-137.93 -80.18)"/><path class="cls-2" d="M246.15,342.79l.05.15Z" transform="translate(-137.93 -80.18)"/><path class="cls-2" d="M244.82,340l.05.09Z" transform="translate(-137.93 -80.18)"/><path class="cls-2" d="M451.68,526.62l-1.8.95Z" transform="translate(-137.93 -80.18)"/><path class="cls-2" d="M449.68,527.67l-1.78.9Z" transform="translate(-137.93 -80.18)"/><path class="cls-2" d="M447.75,528.65l-1.75.86Z" transform="translate(-137.93 -80.18)"/><path class="cls-2" d="M455.85,524.33l-1.86,1Z" transform="translate(-137.93 -80.18)"/><path class="cls-2" d="M453.74,525.51l-1.83,1Z" transform="translate(-137.93 -80.18)"/><path class="cls-2" d="M458,523.09l-1.87,1.07Z" transform="translate(-137.93 -80.18)"/><path class="cls-2" d="M439.12,532.58l-1.49.58Z" transform="translate(-137.93 -80.18)"/><path class="cls-2" d="M522,472a247.51,247.51,0,0,0,31.23-40.45h0A247.49,247.49,0,0,1,522,472Z" transform="translate(-137.93 -80.18)"/><path class="cls-2" d="M437.62,533.17l-1.41.52Z" transform="translate(-137.93 -80.18)"/><path class="cls-2" d="M444.08,530.42l-1.67.76Z" transform="translate(-137.93 -80.18)"/><path class="cls-2" d="M440.7,531.93l-1.56.65Z" transform="translate(-137.93 -80.18)"/><path class="cls-2" d="M442.35,531.21l-1.62.71Z" transform="translate(-137.93 -80.18)"/><path class="cls-2" d="M445.88,529.57l-1.71.81Z" transform="translate(-137.93 -80.18)"/><path class="cls-2" d="M246.15,356.21l-.15.57Z" transform="translate(-137.93 -80.18)"/><path class="cls-2" d="M246.73,353.58l-.1.52Z" transform="translate(-137.93 -80.18)"/><path class="cls-2" d="M245.74,357.63l-.18.59Z" transform="translate(-137.93 -80.18)"/><path class="cls-2" d="M237.74,374.2l-.38.58Z" transform="translate(-137.93 -80.18)"/><path class="cls-2" d="M236.79,375.63l-.38.55Z" transform="translate(-137.93 -80.18)"/><path class="cls-2" d="M246.48,354.86l-.12.55Z" transform="translate(-137.93 -80.18)"/><path class="cls-2" d="M238.69,372.7l-.34.54Z" transform="translate(-137.93 -80.18)"/><path class="cls-2" d="M244.66,360.73l-.2.51Z" transform="translate(-137.93 -80.18)"/><path class="cls-2" d="M241.88,366.9l-.34.67Z" transform="translate(-137.93 -80.18)"/><path class="cls-2" d="M245.26,359.12l-.2.57Z" transform="translate(-137.93 -80.18)"/><path class="cls-2" d="M240.89,368.83l-.31.58Z" transform="translate(-137.93 -80.18)"/><path class="cls-2" d="M239.72,371l-.09.17Z" transform="translate(-137.93 -80.18)"/><path class="cls-2" d="M233.73,379.69l-.48.57Z" transform="translate(-137.93 -80.18)"/><path class="cls-2" d="M247.16,349c0,.1,0,.21,0,.31C247.16,349.21,247.16,349.1,247.16,349Z" transform="translate(-137.93 -80.18)"/><path class="cls-2" d="M235.78,377.06l-.48.65Z" transform="translate(-137.93 -80.18)"/><path class="cls-2" d="M232,381.63c-.43.47-.85.92-1.27,1.35C231.19,382.55,231.62,382.1,232,381.63Z" transform="translate(-137.93 -80.18)"/><path class="cls-2" d="M247.14,348c0,.07,0,.13,0,.2S247.14,348.06,247.14,348Z" transform="translate(-137.93 -80.18)"/><path class="cls-2" d="M242.84,364.92l-.3.63Z" transform="translate(-137.93 -80.18)"/><path class="cls-2" d="M232.86,380.72l-.5.56Z" transform="translate(-137.93 -80.18)"/><path class="cls-2" d="M246.93,352.35c0,.16,0,.32-.07.48C246.88,352.67,246.9,352.51,246.93,352.35Z" transform="translate(-137.93 -80.18)"/><path class="cls-2" d="M234.63,378.58l-.45.56Z" transform="translate(-137.93 -80.18)"/><path class="cls-2" d="M247.06,351.18c0,.14,0,.29,0,.43C247,351.47,247,351.32,247.06,351.18Z" transform="translate(-137.93 -80.18)"/><path class="cls-2" d="M246.39,343.5l0,.15Z" transform="translate(-137.93 -80.18)"/><path class="cls-2" d="M247.13,350.06c0,.13,0,.25,0,.38C247.12,350.31,247.13,350.19,247.13,350.06Z" transform="translate(-137.93 -80.18)"/><path class="cls-2" d="M246.61,344.29l0,.11Z" transform="translate(-137.93 -80.18)"/><path class="cls-2" d="M854.64,349.14l1.09.7Z" transform="translate(-137.93 -80.18)"/><path class="cls-2" d="M845.27,341.58l-.75-.78Z" transform="translate(-137.93 -80.18)"/><path class="cls-2" d="M618.88,417a124.86,124.86,0,0,0,6.85,11.4A124.86,124.86,0,0,1,618.88,417Z" transform="translate(-137.93 -80.18)"/><path class="cls-2" d="M852.24,347.49l.94.67Z" transform="translate(-137.93 -80.18)"/><path class="cls-2" d="M853.47,348.36l1,.67Z" transform="translate(-137.93 -80.18)"/><path class="cls-2" d="M851,346.55l.92.69Z" transform="translate(-137.93 -80.18)"/><path class="cls-2" d="M625.73,428.44q1.2,1.78,2.43,3.48Q626.93,430.22,625.73,428.44Z" transform="translate(-137.93 -80.18)"/><path class="cls-2" d="M652.61,458q1.08.91,2.11,1.73Q653.7,458.93,652.61,458Z" transform="translate(-137.93 -80.18)"/><path class="cls-2" d="M645.7,451.87q1.21,1.15,2.39,2.21Q646.91,453,645.7,451.87Z" transform="translate(-137.93 -80.18)"/><path class="cls-2" d="M631.9,436.85q1.26,1.58,2.53,3.09Q633.16,438.44,631.9,436.85Z" transform="translate(-137.93 -80.18)"/><path class="cls-2" d="M638.24,444.27c1.69,1.85,3.37,3.59,5,5.22C641.6,447.86,639.92,446.12,638.24,444.27Z" transform="translate(-137.93 -80.18)"/><path class="cls-2" d="M634.43,439.94q1.27,1.5,2.54,2.93Q635.7,441.44,634.43,439.94Z" transform="translate(-137.93 -80.18)"/><path class="cls-2" d="M847.09,343.31l.83.75Z" transform="translate(-137.93 -80.18)"/><path class="cls-2" d="M839.3,334.43c.26.37.52.75.79,1.11C839.82,335.18,839.56,334.8,839.3,334.43Z" transform="translate(-137.93 -80.18)"/><path class="cls-2" d="M838,332.54c.27.42.54.84.81,1.24C838.57,333.38,838.3,333,838,332.54Z" transform="translate(-137.93 -80.18)"/><path class="cls-2" d="M836.43,329.93q.59,1,1.19,2Q837,330.95,836.43,329.93Z" transform="translate(-137.93 -80.18)"/><path class="cls-2" d="M840.59,336.2c.25.33.51.67.77,1C841.1,336.87,840.85,336.53,840.59,336.2Z" transform="translate(-137.93 -80.18)"/><path class="cls-2" d="M845.8,342.09l.79.77Z" transform="translate(-137.93 -80.18)"/><path class="cls-2" d="M617.82,415c-.5-1-1-2-1.46-3h0C616.84,413,617.32,414,617.82,415Z" transform="translate(-137.93 -80.18)"/><path class="cls-2" d="M848.4,344.47l.84.72Z" transform="translate(-137.93 -80.18)"/><path class="cls-2" d="M843.2,339.37l.75.84Z" transform="translate(-137.93 -80.18)"/><path class="cls-2" d="M849.69,345.55l.88.7Z" transform="translate(-137.93 -80.18)"/><path class="cls-2" d="M841.84,337.77c.27.33.54.66.81,1C842.38,338.43,842.11,338.1,841.84,337.77Z" transform="translate(-137.93 -80.18)"/><path class="cls-2" d="M462.52,520.41l-1.9,1.14Z" transform="translate(-137.93 -80.18)"/><path class="cls-2" d="M482.14,507.21l-1.94,1.41Z" transform="translate(-137.93 -80.18)"/><path class="cls-2" d="M490,501.25l-2,1.54Z" transform="translate(-137.93 -80.18)"/><path class="cls-2" d="M477,510.88l-1.92,1.34Z" transform="translate(-137.93 -80.18)"/><path class="cls-2" d="M484.74,505.28l-2,1.45Z" transform="translate(-137.93 -80.18)"/><path class="cls-2" d="M474.52,512.63l-1.92,1.3Z" transform="translate(-137.93 -80.18)"/><path class="cls-2" d="M487.35,503.3l-2,1.5Z" transform="translate(-137.93 -80.18)"/><path class="cls-2" d="M479.58,509.08l-1.94,1.38Z" transform="translate(-137.93 -80.18)"/><path class="cls-2" d="M464.84,519l-1.92,1.19Z" transform="translate(-137.93 -80.18)"/><path class="cls-2" d="M460.24,521.78l-1.88,1.11Z" transform="translate(-137.93 -80.18)"/><path class="cls-2" d="M467.2,517.49l-1.91,1.21Z" transform="translate(-137.93 -80.18)"/><path class="cls-2" d="M472,514.31l-1.93,1.28Z" transform="translate(-137.93 -80.18)"/><path class="cls-2" d="M469.61,515.93l-1.91,1.24Z" transform="translate(-137.93 -80.18)"/><path class="cls-2" d="M511.34,482.75l-2.21,2.08Z" transform="translate(-137.93 -80.18)"/><path class="cls-2" d="M508.67,485.27l-2.16,2Z" transform="translate(-137.93 -80.18)"/><path class="cls-2" d="M492.63,499.14l-2,1.59Z" transform="translate(-137.93 -80.18)"/><path class="cls-2" d="M521.92,472.14q-1.22,1.29-2.44,2.55Q520.71,473.43,521.92,472.14Z" transform="translate(-137.93 -80.18)"/><path class="cls-2" d="M516.66,477.56l-2.31,2.29Z" transform="translate(-137.93 -80.18)"/><path class="cls-2" d="M519.3,474.88q-1.19,1.23-2.39,2.43Q518.11,476.1,519.3,474.88Z" transform="translate(-137.93 -80.18)"/><path class="cls-2" d="M514,480.19l-2.26,2.18Z" transform="translate(-137.93 -80.18)"/><path class="cls-2" d="M495.29,497l-2,1.64Z" transform="translate(-137.93 -80.18)"/><path class="cls-2" d="M498,494.75l-2,1.7Z" transform="translate(-137.93 -80.18)"/><path class="cls-2" d="M506,487.72l-2.14,1.92Z" transform="translate(-137.93 -80.18)"/><path class="cls-2" d="M500.63,492.47l-2.08,1.78Z" transform="translate(-137.93 -80.18)"/><path class="cls-2" d="M503.32,490.12l-2.1,1.84Z" transform="translate(-137.93 -80.18)"/><path class="cls-3" d="M607.56,384.93q.48,2.57,1.07,5.06Q608,387.5,607.56,384.93Z" transform="translate(-137.93 -80.18)"/><path class="cls-3" d="M611.39,399.64q1.17,3.5,2.53,6.82Q612.57,403.13,611.39,399.64Z" transform="translate(-137.93 -80.18)"/><path class="cls-3" d="M616.36,412h0c-.19-.4-.37-.79-.56-1.19C616,411.21,616.17,411.6,616.36,412Z" transform="translate(-137.93 -80.18)"/><path class="cls-3" d="M511.2,383.45a60.07,60.07,0,0,1,4.44-12C502.36,365.08,483.1,356.65,457,347c-39.63-16.29-47.6-40-49-51.68a11.2,11.2,0,0,1,3.69-9.68c-.77-6.86-.65-23.34,11.19-49.93A15.61,15.61,0,0,1,438,208.41c.47,1.61,1.22,2.65,2.32,2.92,9.33,2.33,19-7.33,19-7.33s27-20.33,73-21.33,66-35,66-35,21,58,52,63.65l.06.22.52-.13c.8.13,1.6.23,2.42.29a22.61,22.61,0,0,0,5-.16,13.92,13.92,0,0,1,.89,26.41c3.62,9,8.29,22.73,9,35.33.56.34,1.09.67,1.58,1a11.35,11.35,0,0,1,5.14,10.19c-.94,15.72-8.11,57.21-56.91,70.44-25.19,6.83-41.81,11.79-53.17,15.75.14,4.8,1.18,11.54,5.74,13.67a5.47,5.47,0,0,0,.74-2.55c0-.93,1.67-1.8,4.44-2.59a189.11,189.11,0,0,1-22.45,52.41h0a189,189,0,0,0,22.53-52.75c2.92-11.67,17.54-11.1,25.24-9.94a5.87,5.87,0,0,1,2.23.84h0a39,39,0,0,1,7.19-1.42c8.08-.87,66.59-13.94,125.22-30.81a47.8,47.8,0,0,0-13.87-37.66l-7.68-7.68a34.08,34.08,0,0,1-6.42-39.28l7.73-15.54a17,17,0,0,0-3-19.39l-26.95-27.8a15.54,15.54,0,0,1-4.36-10c-3.71-70.28-67.33-69.33-67.33-69.33-18.5-40.5-101-40-154-3.67s-62.5,92.17-64.17,97.83-19,13-23.67,36.67c-3,17,8.7,40,8.67,57.67,1,11-23.1,38-22.7,57.33a29.13,29.13,0,0,0,0,9.68c62.95,10.22,126.42,13.49,134.85,13.49C504.09,379.84,509.53,382.44,511.2,383.45Z" transform="translate(-137.93 -80.18)"/><path class="cls-3" d="M605.66,372.59a6.16,6.16,0,0,1,.21.59A6,6,0,0,0,605.66,372.59Z" transform="translate(-137.93 -80.18)"/><path class="cls-3" d="M605.94,373.46a6.16,6.16,0,0,1,.16.89A6.08,6.08,0,0,0,605.94,373.46Z" transform="translate(-137.93 -80.18)"/><path class="cls-3" d="M604.73,371l.16.2Z" transform="translate(-137.93 -80.18)"/><path class="cls-3" d="M605.19,371.65a6,6,0,0,1,.36.66A6,6,0,0,0,605.19,371.65Z" transform="translate(-137.93 -80.18)"/><path class="cls-4" d="M481.6,427.62c-46.44-20.39-121-54.62-121-54.62a14.77,14.77,0,0,1-2.68-6.65c-41.65-6.77-83.07-16.58-108.15-30.51,0,0-4.46-1.91-6.73,2h0l.13.11h0l.1.09,0,0,.09.09.11.11.07.07a10.14,10.14,0,0,1,.69.83v0l.25.34,0,.06.23.35.05.09.22.37.06.11.21.39.06.13.21.43.06.14.2.46.06.15.19.5.05.15c.06.18.12.37.18.56l0,.15c.06.21.12.43.17.65l0,.11a18.86,18.86,0,0,1,.5,3.59c0,.07,0,.13,0,.2,0,.26,0,.53,0,.81,0,.1,0,.21,0,.31s0,.49,0,.75,0,.25,0,.38,0,.49-.05.74,0,.29,0,.43-.05.49-.09.74,0,.32-.07.48-.08.5-.12.75l-.1.52c0,.25-.1.51-.16.77l-.12.55c-.06.26-.13.53-.2.8l-.15.57c-.08.28-.16.56-.25.84l-.18.59c-.1.3-.2.6-.31.91l-.2.57c-.12.34-.26.68-.39,1l-.2.51c-.21.52-.44,1.06-.68,1.6-.32.72-.63,1.41-.95,2.08l-.3.63c-.22.46-.44.91-.66,1.36l-.34.67-.65,1.26-.31.58q-.43.79-.86,1.54l-.09.17c-.31.54-.62,1.06-.93,1.57l-.34.54-.61,1-.38.58-.57.85-.38.55-.63.88-.48.65-.67.88-.45.56-.45.55-.48.57-.4.46-.5.56-.32.35c-.43.47-.85.92-1.27,1.35h0c-6,6.14-10.79,8.06-12,12.85-2,8-32,109-13,143s183.27-20.76,250.55-57.75l5.45-14.25Zm-43.89,28.76-6.5,3.44c-2.18,1.12-4.41,2.15-6.61,3.23-1.11.52-2.21,1.06-3.34,1.55L417.87,466l-3.39,1.44c-1.13.48-2.25,1-3.41,1.38-4.61,1.68-9.18,3.48-13.9,4.82a186.61,186.61,0,0,1-28.6,6.56q3.52-1.06,7-2.05c2.34-.67,4.7-1.26,7-2.08l6.95-2.23c1.16-.35,2.31-.76,3.45-1.18l3.43-1.24c9.16-3.24,18.11-7,26.89-11.12s17.38-8.64,25.78-13.51a280.59,280.59,0,0,0,24.47-15.91,158.11,158.11,0,0,1-23.25,17.9C446.23,451.51,442,453.94,437.71,456.38Z" transform="translate(-137.93 -80.18)"/><path class="cls-4" d="M481.6,427.62,504.16,383l7,.8.08-.31c-1.67-1-7.1-3.61-18.41-3.61-8.43,0-71.9-3.26-134.85-13.49a14.77,14.77,0,0,0,2.68,6.65S435.15,407.23,481.6,427.62Z" transform="translate(-137.93 -80.18)"/><path class="cls-5" d="M232,381.63l.32-.35.5-.56.4-.46.48-.57.45-.55.45-.56.67-.88.48-.65.63-.88.38-.55.57-.85.38-.58.61-1,.34-.54c.31-.51.62-1,.93-1.57l.09-.17q.43-.75.86-1.54l.31-.58.65-1.26.34-.67c.22-.44.44-.9.66-1.36l.3-.63c.32-.68.63-1.37.95-2.08.24-.54.47-1.08.68-1.6l.2-.51c.14-.35.27-.69.39-1l.2-.57c.11-.31.21-.61.31-.91l.18-.59c.09-.28.17-.57.25-.84l.15-.57c.07-.27.14-.54.2-.8l.12-.55c.06-.26.11-.52.16-.77l.1-.52q.07-.38.12-.75c0-.16,0-.32.07-.48s.06-.5.09-.74,0-.29,0-.43,0-.49.05-.74,0-.26,0-.38,0-.5,0-.75,0-.21,0-.31c0-.28,0-.54,0-.81,0-.07,0-.14,0-.2a18.89,18.89,0,0,0-.5-3.59l0-.11c-.06-.22-.11-.44-.17-.65l0-.15c-.06-.19-.12-.38-.18-.56l-.05-.15c-.06-.17-.12-.34-.19-.5l-.06-.15-.2-.46-.06-.14-.21-.43-.06-.13-.21-.39-.06-.11-.22-.37-.05-.09-.23-.35,0-.06-.25-.34v0a10.08,10.08,0,0,0-.69-.83l-.07-.07-.11-.11-.09-.09,0,0-.1-.09h0l-.13-.11h0l-28.61-25c-2.8-2.45-5.67-4.94-9.12-6.33s-7.65-1.47-10.65.73-4.16,6.13-3.93,9.8,1.67,7.13,3.08,10.52c0,0-24.35-4.72-37-.72-5,1.57-11.93,7.1-15.12,11.22-3.8,4.91-4.21,11.66-3.37,17.81,1.8,13.2,12.57,25.34,25,30,8.44,3.17,17.79,2.18,26.75,1.15,14.54-1.68,26.61-2.54,40.69-4.06h0C231.19,382.55,231.62,382.1,232,381.63Z" transform="translate(-137.93 -80.18)"/><path class="cls-5" d="M243.61,338.42a10.08,10.08,0,0,1,.69.83A10.14,10.14,0,0,0,243.61,338.42Z" transform="translate(-137.93 -80.18)"/><path class="cls-5" d="M243.43,338.23l.11.11Z" transform="translate(-137.93 -80.18)"/><path class="cls-5" d="M244.31,339.27l.25.34Z" transform="translate(-137.93 -80.18)"/><path class="cls-5" d="M244.59,339.67l.23.35Z" transform="translate(-137.93 -80.18)"/><path class="cls-5" d="M242.54,365.55c-.22.46-.44.91-.66,1.36C242.1,366.46,242.32,366,242.54,365.55Z" transform="translate(-137.93 -80.18)"/><path class="cls-5" d="M244.87,340.1l.22.37Z" transform="translate(-137.93 -80.18)"/><path class="cls-5" d="M243.29,338.1l0,0Z" transform="translate(-137.93 -80.18)"/><polygon class="cls-5" points="105.26 257.82 105.26 257.82 105.27 257.82 105.26 257.82"/><path class="cls-5" d="M238.35,373.24l-.61,1Z" transform="translate(-137.93 -80.18)"/><path class="cls-5" d="M246,356.78c-.08.28-.16.56-.25.84C245.83,357.34,245.92,357.06,246,356.78Z" transform="translate(-137.93 -80.18)"/><path class="cls-5" d="M244.46,361.24c-.21.52-.44,1.06-.68,1.6C244,362.29,244.25,361.76,244.46,361.24Z" transform="translate(-137.93 -80.18)"/><path class="cls-5" d="M234.18,379.14l-.45.55Z" transform="translate(-137.93 -80.18)"/><path class="cls-5" d="M246.35,355.41c-.06.26-.13.53-.2.8C246.22,355.94,246.29,355.67,246.35,355.41Z" transform="translate(-137.93 -80.18)"/><path class="cls-5" d="M247,351.61c0,.24-.05.49-.09.74C247,352.1,247,351.85,247,351.61Z" transform="translate(-137.93 -80.18)"/><path class="cls-5" d="M237.36,374.78l-.57.85Z" transform="translate(-137.93 -80.18)"/><polygon class="cls-5" points="105.13 257.7 105.13 257.7 105.13 257.7 105.13 257.7"/><path class="cls-5" d="M247.14,348.19c0,.26,0,.53,0,.81C247.16,348.72,247.15,348.45,247.14,348.19Z" transform="translate(-137.93 -80.18)"/><path class="cls-5" d="M247.15,349.31c0,.25,0,.49,0,.75C247.15,349.81,247.15,349.56,247.15,349.31Z" transform="translate(-137.93 -80.18)"/><path class="cls-5" d="M232.36,381.29l-.32.35Z" transform="translate(-137.93 -80.18)"/><path class="cls-5" d="M247.11,350.44c0,.24,0,.49-.05.74C247.08,350.93,247.1,350.68,247.11,350.44Z" transform="translate(-137.93 -80.18)"/><path class="cls-5" d="M246.64,354.09c0,.25-.1.51-.16.77C246.53,354.6,246.59,354.35,246.64,354.09Z" transform="translate(-137.93 -80.18)"/><path class="cls-5" d="M240.57,369.41q-.43.79-.86,1.54Q240.15,370.21,240.57,369.41Z" transform="translate(-137.93 -80.18)"/><path class="cls-5" d="M245.06,359.69c-.12.34-.26.68-.39,1C244.8,360.38,244.93,360,245.06,359.69Z" transform="translate(-137.93 -80.18)"/><path class="cls-5" d="M243.79,362.84c-.32.72-.63,1.41-.95,2.08C243.15,364.24,243.47,363.55,243.79,362.84Z" transform="translate(-137.93 -80.18)"/><path class="cls-5" d="M235.3,377.71l-.67.88Z" transform="translate(-137.93 -80.18)"/><path class="cls-5" d="M246.86,352.83q-.06.37-.12.75Q246.8,353.2,246.86,352.83Z" transform="translate(-137.93 -80.18)"/><path class="cls-5" d="M236.41,376.18l-.63.88Z" transform="translate(-137.93 -80.18)"/><path class="cls-5" d="M245.56,358.21c-.1.3-.2.6-.31.91C245.36,358.81,245.47,358.51,245.56,358.21Z" transform="translate(-137.93 -80.18)"/><path class="cls-5" d="M241.54,367.57l-.65,1.26Z" transform="translate(-137.93 -80.18)"/><path class="cls-5" d="M233.25,380.26l-.4.46Z" transform="translate(-137.93 -80.18)"/><path class="cls-5" d="M245.7,341.67l.2.46Z" transform="translate(-137.93 -80.18)"/><path class="cls-5" d="M246.43,343.65c.06.21.12.43.17.65C246.55,344.07,246.49,343.86,246.43,343.65Z" transform="translate(-137.93 -80.18)"/><polygon class="cls-5" points="92.85 302.8 92.84 302.8 92.84 302.8 92.85 302.8"/><path class="cls-5" d="M239.62,371.12c-.31.54-.62,1.06-.93,1.57C239,372.19,239.31,371.66,239.62,371.12Z" transform="translate(-137.93 -80.18)"/><path class="cls-5" d="M246.21,342.94c.06.18.12.37.18.56C246.33,343.31,246.27,343.12,246.21,342.94Z" transform="translate(-137.93 -80.18)"/><path class="cls-5" d="M246,342.28c.06.16.13.33.19.5Z" transform="translate(-137.93 -80.18)"/><path class="cls-5" d="M246.64,344.41a18.89,18.89,0,0,1,.5,3.59A18.86,18.86,0,0,0,246.64,344.41Z" transform="translate(-137.93 -80.18)"/><path class="cls-5" d="M245.15,340.58l.21.39Z" transform="translate(-137.93 -80.18)"/><path class="cls-5" d="M245.43,341.1l.21.43Z" transform="translate(-137.93 -80.18)"/><path class="cls-4" d="M854.64,349.14l-.17-.11-1-.67-.29-.2-.94-.67-.36-.26-.92-.69-.4-.3-.88-.7-.44-.36-.84-.72-.48-.41-.83-.75-.5-.45-.79-.77-.53-.52-.75-.78-.57-.59-.75-.84-.55-.62c-.27-.32-.54-.65-.81-1l-.48-.58c-.26-.32-.51-.66-.77-1l-.51-.66c-.27-.36-.53-.74-.79-1.11l-.46-.64c-.27-.4-.54-.82-.81-1.24l-.41-.63q-.6-1-1.19-2c-9.07-15.66-1.78-22.87-1.78-22.87l-.13-.16h0c-2.47-3.14-6.21-1-6.21-1-24.3,10.73-58.49,21.83-92.63,31.66a47.7,47.7,0,0,1-12.25,28.37l-16.14,17.8s-44.85,14-90.93,28.33c.48,1,1,2,1.46,3q.52,1,1.06,2a124.86,124.86,0,0,0,6.85,11.4q1.2,1.78,2.43,3.48,1.85,2.55,3.74,4.93,1.26,1.58,2.53,3.09t2.54,2.93l1.27,1.4c1.69,1.85,3.37,3.59,5,5.22q1.24,1.23,2.45,2.37t2.39,2.21c1.57,1.42,3.08,2.74,4.53,3.95q1.08.91,2.11,1.73c5.46,4.41,9.6,7.11,11.06,8.08l.19.14c65.15,20.84,205.06,48.09,218.73,16,14-32.92-12.1-116.62-14.71-123.73-1.38-3.75-7.17-5.94-14.18-10.36l-.09-.06Zm-86.52,118c-1.68-.08-3.37-.11-5.06-.24l-5-.38-10.1-.76-2.52-.2-2.52-.28-5-.56c-3.35-.39-6.72-.72-10.07-1.15A338.35,338.35,0,0,1,688,455.87a172.47,172.47,0,0,1-19.3-6.28l-2.36-.94c-.78-.33-1.54-.7-2.31-1.05-1.54-.71-3.09-1.38-4.57-2.2l-2.25-1.18c-.73-.42-1.46-.87-2.18-1.31s-1.42-.93-2.1-1.42a19.2,19.2,0,0,1-2-1.58,19.14,19.14,0,0,0,2.1,1.39c.73.42,1.44.86,2.21,1.21l2.24,1.14,2.3,1c1.51.72,3.1,1.27,4.67,1.88.79.29,1.56.61,2.35.88l2.39.78c1.6.5,3.16,1.1,4.78,1.55l4.84,1.37,2.42.68,2.44.6,4.88,1.19c6.55,1.44,13.1,2.87,19.74,3.92,6.59,1.26,13.26,2.07,19.9,3.06,3.33.45,6.67.81,10,1.21s6.66.85,10,1.13l10,1c3.35.32,6.69.68,10,.9l10.06.78c3.35.26,6.71.6,10.07.76,6.72.47,13.44.84,20.17,1.41-6.74.11-13.48,0-20.23.06S774.86,467.39,768.12,467.13Zm74.63,18.31a125.67,125.67,0,0,1-17.8,1.44,162.44,162.44,0,0,1-17.8-.8,128.83,128.83,0,0,1-17.57-2.84l17.71.51c2.94.06,5.88.14,8.82.14l4.4,0,4.4-.05c1.47,0,2.93-.05,4.4-.08s2.93-.08,4.39-.16,2.93-.11,4.39-.2,2.92-.23,4.38-.33a144.32,144.32,0,0,0,17.44-2.54A69.26,69.26,0,0,1,842.75,485.44Z" transform="translate(-137.93 -80.18)"/><path class="cls-4" d="M603.26,369.74h0a6,6,0,0,1,1.47,1.29l.16.2c.1.14.21.28.3.42a6,6,0,0,1,.36.66c0,.09.08.19.11.28a6,6,0,0,1,.21.59c0,.09.05.18.07.27a6.08,6.08,0,0,1,.16.89c.33,3.63.82,7.16,1.46,10.58q.48,2.57,1.07,5.06c.79,3.32,1.71,6.53,2.75,9.64q1.17,3.5,2.53,6.82.9,2.22,1.88,4.35c.18.4.37.79.56,1.19,46.07-14.33,90.93-28.33,90.93-28.33l16.14-17.8a47.7,47.7,0,0,0,12.25-28.37C677,354.37,618.53,367.45,610.45,368.31A39,39,0,0,0,603.26,369.74Z" transform="translate(-137.93 -80.18)"/><path class="cls-6" d="M542.12,396.67c14.55-.14,25.55-7,28.4-12.36-4.55-2.14-5.6-8.87-5.74-13.67-16,5.57-21.55,9.13-25.83,13,0,0-7.29-4.6-23.32-12.26a60.07,60.07,0,0,0-4.44,12,6.16,6.16,0,0,1,.59.39S525.12,396.84,542.12,396.67Z" transform="translate(-137.93 -80.18)"/><path class="cls-6" d="M511.2,383.45l-.08.31.66.08A6.16,6.16,0,0,0,511.2,383.45Z" transform="translate(-137.93 -80.18)"/><path class="cls-7" d="M428.75,276.22a23.88,23.88,0,1,1,45.46-14.29c19-4.07,42.74-7.25,71.89-8.2,25.37-.83,46.06.23,62.83,2.31A23.88,23.88,0,1,1,655.26,267a86.66,86.66,0,0,1,12.88,6.29c-.71-12.59-5.38-26.34-9-35.33a13.92,13.92,0,0,0-.89-26.41,22.61,22.61,0,0,1-5,.16c-.81-.06-1.62-.16-2.42-.29l-.52.13-.06-.22c-31-5.67-52-63.65-52-63.65s-20,34-66,35-73,21.33-73,21.33-9.67,9.67-19,7.33c-1.1-.28-1.85-1.32-2.32-2.92a15.61,15.61,0,0,0-15.15,27.3c-11.84,26.6-12,43.08-11.19,49.93a11.33,11.33,0,0,1,1.43-1.09A120.17,120.17,0,0,1,428.75,276.22Zm169-56.56c1.61,0,2.92,2.29,2.92,5.12s-1.31,5.12-2.92,5.12-2.92-2.29-2.92-5.12S596.11,219.66,597.72,219.66Zm-72.2,19.4a2,2,0,0,1,2.76.61c4.51,7,11.71,7.48,21.42,1.3a8.07,8.07,0,0,0,3.37-8.76c-3.8-15.65-.7-38-.56-38.93a2,2,0,0,1,4,.56c0,.22-3.13,22.53.49,37.42a12.06,12.06,0,0,1-5.11,13.07c-5.2,3.31-10,5-14.21,5-5.2,0-9.54-2.5-12.72-7.48A2,2,0,0,1,525.52,239.06Zm-42-15.48c1.61,0,3,2.24,3,5.07s-1.23,5.14-2.84,5.16-3-2.24-3-5.07S481.95,223.61,483.56,223.58Z" transform="translate(-137.93 -80.18)"/><path class="cls-7" d="M510.38,312.62c6.68,4.3,17.52,8.52,35.07,10.22,15.27,1.48,25.47-.8,32.26-4.26a14.73,14.73,0,0,0,.1-26.23c-7-3.67-17.18-6.84-31.53-6.84-16.19,0-27.47,3.48-34.84,7.12A11.53,11.53,0,0,0,510.38,312.62Zm15.83-15.52a2,2,0,0,1,2.8-.38c.08.06,7.82,5.84,15.84,4.37,4.41-.81,8.2-3.71,11.25-8.6a2,2,0,1,1,3.39,2.12c-3.67,5.9-8.37,9.41-13.95,10.42a19,19,0,0,1-3.42.31c-8.33,0-15.21-5.18-15.54-5.43A2,2,0,0,1,526.21,297.1Z" transform="translate(-137.93 -80.18)"/><path class="cls-8" d="M526.59,299.9c.33.25,7.21,5.43,15.54,5.43a19,19,0,0,0,3.42-.31c5.58-1,10.27-4.52,13.95-10.42a2,2,0,1,0-3.39-2.12c-3,4.89-6.83,7.79-11.25,8.6-8,1.48-15.76-4.31-15.84-4.37a2,2,0,0,0-2.43,3.18Z" transform="translate(-137.93 -80.18)"/><path class="cls-8" d="M537.64,249.3c4.22,0,9-1.65,14.21-5A12.06,12.06,0,0,0,557,231.27c-3.62-14.9-.52-37.2-.49-37.42a2,2,0,0,0-4-.56c-.13.94-3.24,23.28.56,38.93A8.07,8.07,0,0,1,549.7,241c-9.7,6.19-16.91,5.75-21.42-1.3a2,2,0,0,0-3.37,2.16C528.1,246.8,532.44,249.3,537.64,249.3Z" transform="translate(-137.93 -80.18)"/><ellipse class="cls-8" cx="459.79" cy="144.6" rx="2.92" ry="5.12"/><ellipse class="cls-8" cx="483.64" cy="228.7" rx="2.92" ry="5.12" transform="translate(-141.46 -72.56) rotate(-0.9)"/><path class="cls-7" d="M450,243.78a23.87,23.87,0,0,0-21.23,32.45c10.51-4.71,25.37-10,45.46-14.29A23.88,23.88,0,0,0,450,243.78Z" transform="translate(-137.93 -80.18)"/><path class="cls-9" d="M450,243.78a23.87,23.87,0,0,0-21.23,32.45c10.51-4.71,25.37-10,45.46-14.29A23.88,23.88,0,0,0,450,243.78Z" transform="translate(-137.93 -80.18)"/><path class="cls-7" d="M656.37,258.69A23.88,23.88,0,0,0,608.92,256c21.17,2.62,36.1,6.86,46.34,10.95A23.83,23.83,0,0,0,656.37,258.69Z" transform="translate(-137.93 -80.18)"/><path class="cls-9" d="M656.37,258.69A23.88,23.88,0,0,0,608.92,256c21.17,2.62,36.1,6.86,46.34,10.95A23.83,23.83,0,0,0,656.37,258.69Z" transform="translate(-137.93 -80.18)"/><path class="cls-10" d="M565,365.5a40.24,40.24,0,0,0-.17,5.14c11.36-4,28-8.92,53.17-15.75,48.8-13.23,56-54.71,56.91-70.44a11.35,11.35,0,0,0-5.14-10.19c-.49-.32-1-.65-1.58-1A42.39,42.39,0,0,1,667,286.59c-6,22.25-124.75,64.75-124.75,64.75l-130-62a21.76,21.76,0,0,1-.66-3.69,11.2,11.2,0,0,0-3.69,9.68c1.42,11.66,9.39,35.39,49,51.68,26.15,9.65,45.41,18.07,58.68,24.41a42.63,42.63,0,0,1,7.82-11.08C535,348.84,565,365.5,565,365.5Z" transform="translate(-137.93 -80.18)"/><path class="cls-10" d="M564.79,370.64a40.24,40.24,0,0,1,.17-5.14s-30-16.67-41.5-5.17a42.63,42.63,0,0,0-7.82,11.08c16,7.65,23.32,12.26,23.32,12.26C543.24,379.77,548.79,376.21,564.79,370.64Z" transform="translate(-137.93 -80.18)"/><path class="cls-10" d="M542.29,351.34S661,308.84,667,286.59a42.39,42.39,0,0,0,1.11-13.31A86.66,86.66,0,0,0,655.26,267,23.88,23.88,0,0,1,608.92,256c-16.77-2.08-37.45-3.14-62.83-2.31-29.15,1-52.86,4.14-71.89,8.2a23.88,23.88,0,0,1-45.46,14.29,120.17,120.17,0,0,0-15.7,8.33,11.33,11.33,0,0,0-1.43,1.09,21.76,21.76,0,0,0,.66,3.69Zm-30.84-58.71c7.37-3.64,18.65-7.12,34.84-7.12,14.34,0,24.54,3.17,31.53,6.84a14.73,14.73,0,0,1-.1,26.23c-6.79,3.46-17,5.73-32.26,4.26-17.55-1.7-28.4-5.92-35.07-10.22A11.53,11.53,0,0,1,511.44,292.62Z" transform="translate(-137.93 -80.18)"/><path class="cls-10" d="M452.06,291.48a23.88,23.88,0,0,0,22.15-29.55c-20.09,4.29-34.95,9.58-45.46,14.29A23.88,23.88,0,0,0,452.06,291.48Z" transform="translate(-137.93 -80.18)"/><path class="cls-10" d="M608.66,260.76a23.88,23.88,0,0,0,46.6,6.22c-10.24-4.08-25.17-8.32-46.34-10.95A24,24,0,0,0,608.66,260.76Z" transform="translate(-137.93 -80.18)"/><path class="cls-5" d="M938.4,304.9c-3.2-4.12-10.15-9.65-15.12-11.22-12.69-4-37,.71-37,.71,1.42-3.39,2.85-6.85,3.08-10.52s-1-7.63-3.93-9.8-7.2-2.11-10.65-.73-6.32,3.88-9.12,6.33l-31.1,27.23.13.16s-7.29,7.21,1.78,22.87q.59,1,1.19,2l.41.63c.27.42.54.84.81,1.24l.46.64c.26.37.52.75.79,1.11l.51.66c.25.33.51.67.77,1l.48.58c.27.33.54.66.81,1l.55.62.75.84.57.59.75.78.53.52.79.77.5.45.83.75.48.41.84.72.44.36.88.7.4.3.92.69.36.26.94.67.29.2,1,.67.17.11,1.09.7.09.06,1.14.71c11,1.08,21.18,1.9,33,3.27,9,1,18.31,2,26.75-1.15,12.47-4.69,23.25-16.83,25-30C942.61,316.56,942.2,309.81,938.4,304.9Z" transform="translate(-137.93 -80.18)"/><path class="cls-5" d="M841.36,337.2l.48.58Z" transform="translate(-137.93 -80.18)"/><path class="cls-5" d="M847.92,344.06l.48.41Z" transform="translate(-137.93 -80.18)"/><path class="cls-5" d="M853.18,348.16l.29.2Z" transform="translate(-137.93 -80.18)"/><path class="cls-5" d="M851.88,347.23l.36.26Z" transform="translate(-137.93 -80.18)"/><path class="cls-5" d="M854.46,349l.17.11Z" transform="translate(-137.93 -80.18)"/><path class="cls-5" d="M837.62,331.91l.41.63Z" transform="translate(-137.93 -80.18)"/><path class="cls-5" d="M845.8,342.09l-.53-.52Z" transform="translate(-137.93 -80.18)"/><path class="cls-5" d="M846.59,342.86l.5.45Z" transform="translate(-137.93 -80.18)"/><path class="cls-5" d="M840.09,335.54l.51.66Z" transform="translate(-137.93 -80.18)"/><path class="cls-5" d="M838.84,333.78l.46.64Z" transform="translate(-137.93 -80.18)"/><path class="cls-5" d="M855.82,349.91l-.09-.06Z" transform="translate(-137.93 -80.18)"/><path class="cls-5" d="M844,340.21l.57.59Z" transform="translate(-137.93 -80.18)"/><path class="cls-5" d="M842.65,338.75l.55.62Z" transform="translate(-137.93 -80.18)"/><path class="cls-5" d="M849.25,345.19l.44.36Z" transform="translate(-137.93 -80.18)"/><path class="cls-5" d="M850.57,346.25l.4.3Z" transform="translate(-137.93 -80.18)"/><path class="cls-5" d="M834.65,307.06l-.13-.16h0Z" transform="translate(-137.93 -80.18)"/><path class="cls-11" d="M449.1,446.82c-8.4,4.87-17,9.47-25.78,13.51s-17.74,7.88-26.89,11.12L393,472.7c-1.14.42-2.29.83-3.45,1.18l-6.95,2.23c-2.3.82-4.66,1.41-7,2.08s-4.69,1.35-7,2.05a186.61,186.61,0,0,0,28.6-6.56c4.72-1.34,9.29-3.14,13.9-4.82,1.16-.4,2.28-.9,3.41-1.38l3.39-1.44,3.39-1.44c1.13-.49,2.22-1,3.34-1.55,2.2-1.08,4.43-2.11,6.61-3.23l6.5-3.44c4.26-2.43,8.52-4.87,12.61-7.57a158.11,158.11,0,0,0,23.25-17.9A280.59,280.59,0,0,1,449.1,446.82Z" transform="translate(-137.93 -80.18)"/><path class="cls-11" d="M808.57,467.74c-6.72-.57-13.45-.94-20.17-1.41-3.36-.16-6.71-.5-10.07-.76l-10.06-.78c-3.36-.22-6.7-.58-10-.9l-10-1c-3.35-.27-6.68-.76-10-1.12s-6.68-.77-10-1.21c-6.64-1-13.31-1.8-19.9-3.06-6.63-1.05-13.19-2.48-19.74-3.92l-4.88-1.19-2.44-.6-2.42-.68-4.84-1.37c-1.62-.45-3.18-1-4.78-1.55l-2.39-.78c-.79-.28-1.57-.59-2.35-.88-1.56-.6-3.15-1.16-4.67-1.88l-2.3-1-2.24-1.14c-.76-.36-1.48-.79-2.21-1.21a19.14,19.14,0,0,1-2.1-1.39,19.2,19.2,0,0,0,2,1.58c.69.49,1.38,1,2.1,1.42s1.44.88,2.18,1.31l2.25,1.18c1.48.83,3,1.49,4.57,2.2.77.35,1.54.72,2.31,1.05l2.36.94a172.47,172.47,0,0,0,19.3,6.28,338.35,338.35,0,0,0,39.81,7.69c3.35.43,6.71.77,10.07,1.15l5,.56,2.52.28,2.52.2,10.1.76,5,.38c1.68.13,3.37.16,5.06.24,6.74.26,13.48.61,20.23.67S801.83,467.86,808.57,467.74Z" transform="translate(-137.93 -80.18)"/><path class="cls-11" d="M838.08,483.44c-1.46.09-2.93.13-4.39.2s-2.92.14-4.39.16-2.93.1-4.4.08l-4.4.05-4.4,0c-2.94,0-5.88-.09-8.82-.14l-17.71-.51a128.83,128.83,0,0,0,17.57,2.84,162.44,162.44,0,0,0,17.8.8,125.67,125.67,0,0,0,17.8-1.44,69.26,69.26,0,0,0,17.16-4.86,144.32,144.32,0,0,1-17.44,2.54C841,483.2,839.54,483.31,838.08,483.44Z" transform="translate(-137.93 -80.18)"/><path class="cls-12" d="M652.61,458c-1.44-1.21-3-2.52-4.53-3.95q-1.18-1.07-2.39-2.21t-2.45-2.37c-1.65-1.63-3.33-3.37-5-5.22l-1.27-1.4q-1.27-1.42-2.54-2.93t-2.53-3.09q-1.89-2.38-3.74-4.93-1.23-1.7-2.43-3.48a124.86,124.86,0,0,1-6.85-11.4q-.54-1-1.06-2c-.5-1-1-2-1.46-3l-10.12,3.15q.4,2.2.79,4.41c.37,2.05.64,4.12,1,6.17s.6,4.12.87,6.19c.54,4.13.92,8.29,1.3,12.44l.37,6.25c0,1,.15,2.08.15,3.13l0,3.14c.12,4.17-.11,8.36-.39,12.53-.25,2.08-.47,4.16-.75,6.23s-.87,4.09-1.33,6.12q.23-3.13.51-6.2l.1-6.2c0-2.06-.1-4.13-.15-6.19s-.19-4.12-.32-6.18c-.54-8.24-1.39-16.47-2.48-24.67-.67-5.45-1.44-10.9-2.24-16.34l-9.77,3c0,5-.2,9.91-.61,14.85a229.74,229.74,0,0,1-9.36,47.86c-2.35,7.8-5.11,15.46-8.12,23-1.56,3.76-3.09,7.52-4.81,11.21-.85,1.85-1.64,3.72-2.53,5.55l-2.7,5.47-1.35,2.73L563,532.36l-2.86,5.38c-1.93,3.57-4,7.06-6,10.58s-4.29,6.89-6.42,10.33-4.49,6.75-6.77,10.1a483.34,483.34,0,0,0,22.74-42.83l2.52-5.5c.84-1.83,1.6-3.7,2.41-5.55,1.64-3.69,3.09-7.45,4.57-11.2.76-1.87,1.43-3.77,2.13-5.66s1.42-3.77,2.06-5.68c1.28-3.82,2.59-7.63,3.71-11.5s2.24-7.73,3.31-11.62l1.43-5.87c.49-2,.85-3.93,1.31-5.9,1.69-7.87,3-15.83,3.86-23.83q.75-7,1.06-14l-16.84,5.23A178.78,178.78,0,0,1,568.26,443c-2.08,4.53-4.32,9-6.76,13.33-1.28,2.14-2.5,4.31-3.88,6.39-.68,1-1.33,2.11-2,3.14L553.45,469a127.87,127.87,0,0,1-19.88,22.12,188.55,188.55,0,0,0,32-49.26c2-4.47,3.85-9,5.55-13.62.3-.8.59-1.6.87-2.4l-18.7,5.79A247.51,247.51,0,0,1,522,472l-.1.11q-1.22,1.29-2.44,2.55l-.18.18q-1.19,1.23-2.39,2.43l-.24.25-2.31,2.29-.35.34-2.26,2.18-.4.39-2.21,2.08-.47.44-2.16,2-.52.47-2.14,1.92-.53.48-2.1,1.84-.58.5-2.08,1.78-.59.5-2,1.7-.63.53-2,1.64-.65.52-2,1.59-.65.52-2,1.54-.65.51-2,1.5-.64.49-2,1.45-.64.47-1.94,1.41-.62.45-1.94,1.38-.6.43-1.92,1.34-.59.41-1.92,1.3-.56.38-1.93,1.28-.51.34-1.91,1.24-.49.32-1.91,1.21-.45.28-1.92,1.19-.4.25-1.9,1.14-.38.23-1.88,1.11-.34.2-1.87,1.07-.3.17-1.86,1-.26.14-1.83,1-.23.12-1.8.95-.2.1-1.78.9-.15.08-1.75.86-.12.06-1.71.81-.09,0-1.67.76-.06,0-1.62.71h0l-1.56.65h0l-1.49.58h0l-1.41.52h0l-.42.15c-33,34.48-60.34,115-72.4,160h13.15a305.92,305.92,0,0,1,19.41-28.34c2.62-3.32,5.2-6.68,8-9.88,1.38-1.61,2.7-3.26,4.12-4.83l4.22-4.75c1.38-1.61,2.89-3.1,4.34-4.64s2.9-3.09,4.41-4.57l9-8.88c12.13-11.65,23.71-23.88,35-36.38q8.43-9.4,16.67-19c5.52-6.37,10.87-12.89,16.19-19.44-9.67,13.84-20.12,27.14-31.1,40-5.44,6.46-11.16,12.69-16.87,18.92-2.92,3.06-5.8,6.15-8.79,9.14l-4.46,4.51-4.54,4.43-9.06,8.79c-1.51,1.46-2.93,3-4.4,4.51s-2.94,3-4.34,4.56c-5.76,6.11-11.2,12.52-16.57,19s-10.4,13.22-15.28,20.08c-1.62,2.25-3.2,4.52-4.76,6.81h20.55l.65-.91c3.3-4.43,6.76-8.75,10.47-12.86a180,180,0,0,1,24.32-22.57c4.34-3.35,8.58-6.82,12.8-10.32s8.39-7.07,12.54-10.66q12.42-10.82,24.51-22.07a314,314,0,0,1-22.94,23.8c-4,3.81-8.13,7.46-12.28,11.09s-8.45,7.1-12.79,10.51c-2.19,1.7-4.28,3.4-6.43,5.1s-4.18,3.51-6.19,5.35c-4.12,3.58-8,7.46-11.83,11.34s-7.48,8-11,12.18h38.3q13.6-9,26.64-18.85l5.05-3.75c1.7-1.23,3.3-2.59,4.95-3.88l9.84-7.84,9.59-8.15c1.59-1.37,3.22-2.69,4.77-4.1l4.65-4.24c3.09-2.84,6.23-5.63,9.27-8.52l9-8.84c1.49-1.48,3-2.9,4.49-4.42l4.3-4.6q4.29-4.62,8.66-9.18c-10.62,13-21.72,25.81-34.1,37.28l-4.56,4.39c-1.52,1.46-3.15,2.8-4.72,4.21l-9.51,8.36-9.84,8c-1.66,1.31-3.26,2.68-5,3.93l-5.06,3.8c-6.72,5.11-13.69,9.86-20.65,14.63l-2.83,1.82h28c53.4-36,122.68-98.33,201-206.33h0l.45-.62s-1-15-7-19c-1.46-1-5.6-3.67-11.06-8.08Q653.7,458.93,652.61,458ZM472,543.57,459.4,555q-3,3-6.1,5.92c-2,2-4.14,3.87-6,6-3.91,4.09-7.94,8.07-11.6,12.38l-2.83,3.15L431.42,584l-1.34,1.64-5.37,6.55-5.1,6.76c-.88,1.11-1.63,2.3-2.44,3.46l-2.41,3.48c-.83,1.15-1.56,2.35-2.3,3.55L410.21,613c-.76,1.19-1.4,2.45-2.11,3.67s-1.42,2.45-2,3.72l-1.92,3.78-1.74,3.87a59.87,59.87,0,0,0-2.84,8,50,50,0,0,1,2.07-8.3l1.45-4,1.66-4c.53-1.33,1.22-2.59,1.83-3.88s1.23-2.59,1.92-3.84l2.1-3.74c.7-1.25,1.39-2.5,2.18-3.7,1.55-2.4,3-4.88,4.67-7.2l5-7,5.36-6.69,1.34-1.67,1.41-1.61,2.84-3.21c3.74-4.33,7.82-8.33,11.83-12.4,2-2.06,4.16-3.91,6.24-5.86s4.22-3.85,6.34-5.75c4.38-3.65,8.79-7.27,13.24-10.81,4.59-3.38,9.17-6.76,13.83-10C480.66,536.2,476.33,539.89,472,543.57Z" transform="translate(-137.93 -80.18)"/><path class="cls-12" d="M613.92,406.46q-1.36-3.32-2.53-6.82c-1-3.11-2-6.33-2.75-9.64q-.59-2.49-1.07-5.06c-.64-3.42-1.14-7-1.46-10.58a6.16,6.16,0,0,0-.16-.89c0-.09,0-.18-.07-.27a6.16,6.16,0,0,0-.21-.59c0-.09-.07-.19-.11-.28a6,6,0,0,0-.36-.66c-.09-.15-.19-.28-.3-.42l-.16-.2a6.07,6.07,0,0,0-1.47-1.29,5.87,5.87,0,0,0-2.23-.84c-7.7-1.16-22.32-1.73-25.24,9.94a189,189,0,0,1-22.53,52.75l18.7-5.79c1.37-3.82,2.6-7.69,3.78-11.57,1.38-4.71,2.66-9.47,3.74-14.27s2.06-9.64,2.78-14.54a112.55,112.55,0,0,1-1.34,14.81q-1.12,7.36-2.93,14.61c-.82,3.35-1.76,6.67-2.8,10L592,419.57c.15-3.36.23-6.71.19-10.08a124.05,124.05,0,0,0-2.3-24.08,79.75,79.75,0,0,1,2.52,11.9q.87,6,1.24,12.13c.17,3.18.23,6.36.22,9.54l9.77-3q-.61-4.13-1.24-8.26l-3.84-24.62c2.48,8,4.42,16.05,6.13,24.2.57,2.61,1.06,5.24,1.54,7.87L616.36,412c-.19-.4-.37-.79-.56-1.19Q614.83,408.67,613.92,406.46Z" transform="translate(-137.93 -80.18)"/><path class="cls-12" d="M604.73,371a6,6,0,0,0-1.47-1.29A6.07,6.07,0,0,1,604.73,371Z" transform="translate(-137.93 -80.18)"/><path class="cls-12" d="M605.55,372.31c0,.09.08.19.11.28C605.62,372.5,605.59,372.4,605.55,372.31Z" transform="translate(-137.93 -80.18)"/><path class="cls-12" d="M604.89,371.23c.1.14.21.28.3.42C605.1,371.51,605,371.37,604.89,371.23Z" transform="translate(-137.93 -80.18)"/><path class="cls-12" d="M605.87,373.18c0,.09.05.18.07.27C605.92,373.36,605.89,373.27,605.87,373.18Z" transform="translate(-137.93 -80.18)"/><path class="cls-4" d="M471.38,693.79h282.4L672.33,487.46C594.05,595.45,524.77,657.8,471.38,693.79ZM650.61,593.26c1.23,5,2.43,10.05,3.77,15s2.67,10,4.15,14.93,3,9.88,4.64,14.77c.8,2.45,1.68,4.88,2.54,7.31s1.79,4.84,2.76,7.22c1.91,4.79,3.93,9.54,6.23,14.16a137.74,137.74,0,0,0,7.54,13.55,96.79,96.79,0,0,1-8.84-12.86c-1.33-2.25-2.52-4.56-3.74-6.87s-2.29-4.68-3.34-7.07a233,233,0,0,1-10.66-29.36q-4.38-15-7.33-30.33a289.31,289.31,0,0,1-4.42-30.84Q647,578.17,650.61,593.26Zm-27.16,15.67c.82,3.86,1.48,7.75,2.19,11.64s1.26,7.79,1.82,11.71,1,7.84,1.44,11.76.76,7.87.91,11.83a124.59,124.59,0,0,1-.56,23.71c-.14-7.9-.94-15.71-1.78-23.51s-1.87-15.59-3-23.37-2.21-15.57-3.33-23.36-2.25-15.58-3.24-23.43C620.11,593.5,621.87,601.2,623.44,608.93Z" transform="translate(-137.93 -80.18)"/><path class="cls-4" d="M655.65,624.08a233,233,0,0,0,10.66,29.36c1,2.39,2.19,4.73,3.34,7.07s2.41,4.62,3.74,6.87a96.79,96.79,0,0,0,8.84,12.86,137.74,137.74,0,0,1-7.54-13.55c-2.3-4.62-4.32-9.37-6.23-14.16-1-2.39-1.84-4.82-2.76-7.22s-1.74-4.85-2.54-7.31c-1.66-4.88-3.22-9.8-4.64-14.77s-2.85-9.93-4.15-14.93-2.54-10-3.77-15q-3.58-15.1-6.7-30.35a289.31,289.31,0,0,0,4.42,30.84Q651.28,609.06,655.65,624.08Z" transform="translate(-137.93 -80.18)"/><path class="cls-4" d="M624.48,632.69q1.68,11.67,3,23.37c.83,7.81,1.63,15.61,1.78,23.51a124.59,124.59,0,0,0,.56-23.71c-.15-4-.59-7.89-.91-11.83s-.89-7.85-1.44-11.76-1.17-7.81-1.82-11.71-1.37-7.77-2.19-11.64c-1.57-7.73-3.33-15.43-5.53-23,1,7.84,2.1,15.64,3.24,23.43S623.43,624.9,624.48,632.69Z" transform="translate(-137.93 -80.18)"/><path class="cls-4" d="M471.37,693.79h0c53.4-36,122.68-98.34,201-206.33h0C594,595.46,524.77,657.8,471.37,693.79Z" transform="translate(-137.93 -80.18)"/><path class="cls-4" d="M437.62,533.17h0l1.49-.58h0l1.56-.65h0l1.62-.71.06,0,1.67-.76.09,0,1.71-.81.12-.06,1.75-.86.15-.08,1.78-.9.2-.1,1.8-.95.23-.12,1.83-1,.26-.14,1.86-1,.3-.17,1.87-1.07.34-.2,1.88-1.11.38-.23,1.9-1.14.4-.25,1.92-1.19.45-.28,1.91-1.21.49-.32,1.91-1.24.51-.34,1.93-1.28.56-.38,1.92-1.3.59-.41,1.92-1.34.6-.43,1.94-1.38.63-.45,1.94-1.41.64-.47,2-1.45.64-.49,2-1.5.65-.51,2-1.54.65-.52,2-1.59.65-.52,2-1.64.63-.53,2-1.7.59-.5,2.08-1.78.58-.5,2.1-1.84.53-.48,2.14-1.92.52-.47,2.16-2,.47-.44,2.21-2.08.4-.39,2.26-2.18.35-.34,2.31-2.29.24-.25q1.2-1.21,2.39-2.43l.18-.18q1.23-1.26,2.44-2.55l.1-.11a247.49,247.49,0,0,0,31.22-40.44c-20.17,6.24-34.37,10.6-35.45,10.84s-16.07-6-36.21-14.81l-19.81,39.21-5.45,14.25h0L436.2,533.69h0Zm33-55.42a80.65,80.65,0,0,1,1.79-10.66,91.07,91.07,0,0,1,3.09-10.34,63.38,63.38,0,0,1,4.44-9.85c-.63,3.56-1.4,7-2.2,10.51s-1.6,6.92-2.41,10.36l-2.4,10.34c-.78,3.46-1.49,6.93-2.33,10.45A51.84,51.84,0,0,1,470.59,477.75Z" transform="translate(-137.93 -80.18)"/><path class="cls-4" d="M571.26,381.77a5.47,5.47,0,0,1-.74,2.55,7,7,0,0,0,1.6.52c9.17,1.83-29,30-29,30L510,389.57a49.59,49.59,0,0,1,1.13-5.81l-7-.8L481.6,427.62c20.13,8.84,35,15.08,36.21,14.81s15.27-4.6,35.45-10.84a189.11,189.11,0,0,0,22.45-52.41C572.93,380,571.25,380.83,571.26,381.77Z" transform="translate(-137.93 -80.18)"/><polygon class="cls-4" points="323.86 386.66 318.41 400.9 318.41 400.9 323.86 386.66"/><path class="cls-4" d="M543.12,414.84s38.17-28.17,29-30a7,7,0,0,1-1.6-.52c-2.86,5.36-13.86,12.21-28.4,12.36-17,.17-30.33-12.83-30.33-12.83l-.66-.08a49.59,49.59,0,0,0-1.12,5.81Z" transform="translate(-137.93 -80.18)"/><path class="cls-4" d="M472.9,478.12l2.4-10.34c.81-3.44,1.63-6.89,2.41-10.36s1.57-6.95,2.2-10.51a63.38,63.38,0,0,0-4.44,9.85,91.07,91.07,0,0,0-3.09,10.34,80.65,80.65,0,0,0-1.79,10.66,51.84,51.84,0,0,0,0,10.82C471.42,485,472.13,481.58,472.9,478.12Z" transform="translate(-137.93 -80.18)"/><path class="cls-4" d="M503.85,489.64l-.53.48Z" transform="translate(-137.93 -80.18)"/><path class="cls-4" d="M501.21,492l-.58.5Z" transform="translate(-137.93 -80.18)"/><path class="cls-4" d="M506.51,487.25l-.52.47Z" transform="translate(-137.93 -80.18)"/><path class="cls-4" d="M509.14,484.83l-.47.44Z" transform="translate(-137.93 -80.18)"/><path class="cls-4" d="M493.27,498.62l-.65.52Z" transform="translate(-137.93 -80.18)"/><path class="cls-4" d="M514.36,479.84l-.35.34Z" transform="translate(-137.93 -80.18)"/><path class="cls-4" d="M522,472l-.1.11Z" transform="translate(-137.93 -80.18)"/><path class="cls-4" d="M490.63,500.73l-.65.52Z" transform="translate(-137.93 -80.18)"/><path class="cls-4" d="M495.92,496.45l-.63.53Z" transform="translate(-137.93 -80.18)"/><path class="cls-4" d="M519.48,474.69l-.18.18Z" transform="translate(-137.93 -80.18)"/><path class="cls-4" d="M516.91,477.31l-.24.25Z" transform="translate(-137.93 -80.18)"/><path class="cls-4" d="M498.55,494.24l-.59.5Z" transform="translate(-137.93 -80.18)"/><path class="cls-4" d="M511.75,482.37l-.4.39Z" transform="translate(-137.93 -80.18)"/><path class="cls-4" d="M488,502.79l-.65.51Z" transform="translate(-137.93 -80.18)"/><path class="cls-4" d="M449.88,527.56l-.2.1Z" transform="translate(-137.93 -80.18)"/><path class="cls-4" d="M446,529.51l-.12.06Z" transform="translate(-137.93 -80.18)"/><path class="cls-4" d="M456.15,524.16l-.3.17Z" transform="translate(-137.93 -80.18)"/><path class="cls-4" d="M454,525.36l-.26.14Z" transform="translate(-137.93 -80.18)"/><path class="cls-4" d="M451.91,526.5l-.23.12Z" transform="translate(-137.93 -80.18)"/><path class="cls-4" d="M447.9,528.57l-.15.08Z" transform="translate(-137.93 -80.18)"/><polygon class="cls-4" points="298.28 453.51 298.27 453.51 298.27 453.51 298.28 453.51"/><path class="cls-4" d="M437.63,533.16h0Z" transform="translate(-137.93 -80.18)"/><path class="cls-4" d="M442.41,531.18l-.06,0Z" transform="translate(-137.93 -80.18)"/><path class="cls-4" d="M440.73,531.91h0Z" transform="translate(-137.93 -80.18)"/><path class="cls-4" d="M439.14,532.57h0Z" transform="translate(-137.93 -80.18)"/><path class="cls-4" d="M444.17,530.38l-.09,0Z" transform="translate(-137.93 -80.18)"/><path class="cls-4" d="M477.64,510.46l-.6.43Z" transform="translate(-137.93 -80.18)"/><path class="cls-4" d="M480.2,508.62l-.62.45Z" transform="translate(-137.93 -80.18)"/><path class="cls-4" d="M472.6,513.93l-.56.38Z" transform="translate(-137.93 -80.18)"/><path class="cls-4" d="M475.12,512.22l-.59.41Z" transform="translate(-137.93 -80.18)"/><path class="cls-4" d="M482.78,506.74l-.64.47Z" transform="translate(-137.93 -80.18)"/><path class="cls-4" d="M485.38,504.79l-.64.49Z" transform="translate(-137.93 -80.18)"/><path class="cls-4" d="M458.36,522.89l-.34.2Z" transform="translate(-137.93 -80.18)"/><path class="cls-4" d="M470.12,515.59l-.51.34Z" transform="translate(-137.93 -80.18)"/><path class="cls-4" d="M462.92,520.16l-.4.25Z" transform="translate(-137.93 -80.18)"/><path class="cls-4" d="M460.63,521.55l-.38.23Z" transform="translate(-137.93 -80.18)"/><path class="cls-4" d="M465.29,518.7l-.45.28Z" transform="translate(-137.93 -80.18)"/><path class="cls-4" d="M467.69,517.17l-.49.32Z" transform="translate(-137.93 -80.18)"/><path class="cls-13" d="M457.83,553.25q-3.18,2.86-6.34,5.75c-2.08,1.95-4.26,3.8-6.24,5.86-4,4.07-8.09,8.07-11.83,12.4l-2.84,3.21-1.41,1.61-1.34,1.67-5.36,6.69-5,7c-1.67,2.32-3.12,4.8-4.67,7.2-.79,1.19-1.48,2.45-2.18,3.7l-2.1,3.74c-.7,1.25-1.28,2.56-1.92,3.84s-1.3,2.55-1.83,3.88l-1.66,4-1.45,4a50,50,0,0,0-2.07,8.3,59.87,59.87,0,0,1,2.84-8l1.74-3.87,1.92-3.78c.6-1.27,1.35-2.48,2-3.72s1.35-2.48,2.11-3.67l2.24-3.59c.74-1.2,1.47-2.41,2.3-3.55l2.41-3.48c.81-1.16,1.56-2.35,2.44-3.46l5.1-6.76,5.37-6.55,1.34-1.64,1.41-1.58,2.83-3.15c3.66-4.31,7.69-8.29,11.6-12.38,1.91-2.09,4-4,6-6s4.08-3.93,6.1-5.92L472,543.57c4.32-3.69,8.64-7.37,12.89-11.16-4.66,3.27-9.24,6.65-13.83,10C466.62,546,462.22,549.6,457.83,553.25Z" transform="translate(-137.93 -80.18)"/><path class="cls-13" d="M382.49,687q7.32-10.29,15.28-20.08c5.37-6.47,10.81-12.88,16.57-19,1.4-1.56,2.9-3,4.34-4.56s2.89-3,4.4-4.51l9.06-8.79,4.54-4.43,4.46-4.51c3-3,5.87-6.08,8.79-9.14,5.72-6.23,11.43-12.46,16.87-18.92,11-12.84,21.43-26.14,31.1-40-5.32,6.55-10.67,13.07-16.19,19.44s-11,12.73-16.67,19c-11.28,12.5-22.86,24.73-35,36.38l-9,8.88c-1.52,1.48-2.94,3.05-4.41,4.57s-3,3-4.34,4.64L408,650.74c-1.41,1.58-2.74,3.23-4.12,4.83-2.77,3.2-5.35,6.57-8,9.88a305.92,305.92,0,0,0-19.41,28.34h1.2C379.29,691.5,380.87,689.22,382.49,687Z" transform="translate(-137.93 -80.18)"/><path class="cls-13" d="M400.09,693.79q5.31-6.28,11-12.18c3.86-3.88,7.71-7.76,11.83-11.34,2-1.84,4.13-3.57,6.19-5.35s4.24-3.4,6.43-5.1q6.51-5.12,12.79-10.51c4.15-3.64,8.29-7.28,12.28-11.09a314,314,0,0,0,22.94-23.8q-12.11,11.24-24.51,22.07c-4.15,3.59-8.31,7.17-12.54,10.66s-8.46,7-12.8,10.32A180,180,0,0,0,409.4,680c-3.7,4.11-7.17,8.43-10.47,12.86l-.65.91h1.8Z" transform="translate(-137.93 -80.18)"/><path class="cls-13" d="M446.17,692c7-4.76,13.93-9.52,20.65-14.63l5.06-3.8c1.7-1.25,3.3-2.63,5-3.93l9.84-8,9.51-8.36c1.57-1.41,3.2-2.75,4.72-4.21l4.56-4.39c12.38-11.47,23.48-24.25,34.1-37.28q-4.37,4.57-8.66,9.18l-4.3,4.6c-1.45,1.52-3,2.95-4.49,4.42l-9,8.84c-3,2.89-6.19,5.68-9.27,8.52l-4.65,4.24c-1.55,1.42-3.18,2.73-4.77,4.1l-9.59,8.15L475,667.31c-1.65,1.29-3.25,2.65-4.95,3.88L465,674.94q-13,9.83-26.64,18.85h5Z" transform="translate(-137.93 -80.18)"/><path class="cls-13" d="M605.89,432.29c1.09,8.2,1.94,16.43,2.48,24.67.13,2.06.3,4.12.32,6.18s.18,4.13.15,6.19l-.1,6.2q-.28,3.08-.51,6.2.69-3,1.33-6.12c.28-2.07.5-4.14.75-6.23.28-4.16.51-8.35.39-12.53l0-3.14c0-1-.1-2.08-.15-3.13l-.37-6.25c-.38-4.15-.77-8.31-1.3-12.44-.27-2.07-.54-4.13-.87-6.19s-.6-4.12-1-6.17q-.4-2.2-.79-4.41l-2.59.81C604.45,421.39,605.22,426.84,605.89,432.29Z" transform="translate(-137.93 -80.18)"/><path class="cls-13" d="M598.57,383.07l3.84,24.62q.63,4.13,1.24,8.26l2.59-.81c-.48-2.63-1-5.25-1.54-7.87C603,399.13,601,391,598.57,383.07Z" transform="translate(-137.93 -80.18)"/><path class="cls-13" d="M591,433.61c-.91,8-2.17,16-3.86,23.83-.45,2-.82,3.94-1.31,5.9l-1.43,5.87c-1.07,3.88-2.08,7.78-3.31,11.62s-2.43,7.68-3.71,11.5c-.64,1.91-1.37,3.79-2.06,5.68s-1.37,3.79-2.13,5.66c-1.48,3.75-2.93,7.51-4.57,11.2-.81,1.85-1.57,3.72-2.41,5.55l-2.52,5.5a483.34,483.34,0,0,1-22.74,42.83c2.28-3.35,4.55-6.71,6.77-10.1s4.31-6.87,6.42-10.33,4.09-7,6-10.58l2.86-5.38,1.42-2.69,1.35-2.73,2.7-5.47c.89-1.83,1.68-3.7,2.53-5.55,1.71-3.69,3.25-7.45,4.81-11.21,3-7.56,5.77-15.22,8.12-23a229.74,229.74,0,0,0,9.36-47.86c.41-4.94.6-9.9.61-14.85l-1.87.58Q591.7,426.61,591,433.61Z" transform="translate(-137.93 -80.18)"/><path class="cls-13" d="M592.43,397.31a79.75,79.75,0,0,0-2.52-11.9,124.05,124.05,0,0,1,2.3,24.08c0,3.36,0,6.72-.19,10.08l1.87-.58c0-3.18,0-6.37-.22-9.54Q593.29,403.35,592.43,397.31Z" transform="translate(-137.93 -80.18)"/><path class="cls-13" d="M571.08,428.19c-1.7,4.6-3.53,9.15-5.55,13.62a188.55,188.55,0,0,1-32,49.26A127.87,127.87,0,0,0,553.45,469l2.14-3.06c.7-1,1.35-2.09,2-3.14,1.37-2.08,2.59-4.25,3.88-6.39,2.44-4.35,4.68-8.8,6.76-13.33a178.78,178.78,0,0,0,6.91-18.25l-3.22,1C571.66,426.59,571.38,427.4,571.08,428.19Z" transform="translate(-137.93 -80.18)"/><path class="cls-13" d="M580.9,400.22a112.55,112.55,0,0,0,1.34-14.81c-.72,4.9-1.67,9.74-2.78,14.54s-2.35,9.56-3.74,14.27c-1.17,3.89-2.41,7.76-3.78,11.57l3.22-1c1-3.29,2-6.61,2.8-10Q579.79,407.6,580.9,400.22Z" transform="translate(-137.93 -80.18)"/><path class="cls-14" d="M184.38,871.78Q179,868,179,862.2V734.79a10.44,10.44,0,0,1,4.52-8.61q4.52-3.44,12.7-3.44h35.3v12.05l-3.44,26.9h-14.2l-2.15-24.32q-.22-1.94-2.58-1.94h-9q-4.74,0-6.13,3.55t-1.18,10l4.52,107.39a1.14,1.14,0,0,0,1.29,1.29h12.7q2.37,0,2.58-1.29l4.3-16.79h13.34v35.94H200.74Q189.76,875.54,184.38,871.78Z" transform="translate(-137.93 -80.18)"/><path class="cls-15" d="M247,725.11q0-1.08,8.82-1.72t17.43-.65h9.25a6.94,6.94,0,0,1,5.6,2.58,11,11,0,0,1,2.37,6.67l2.15,62-9.68,12.7,17.22,64.13-4.09,4.74h-12.7l-11-66.93-11,1.08-4.52,65.86H247Zm29.7,67.58a1.14,1.14,0,0,0,1.29-1.29V737.8l-3.23-3.23-14.85,1.51.65,57.46Z" transform="translate(-137.93 -80.18)"/><path class="cls-16" d="M312.65,743l-3.87-10.33v-9.9h21.74l-1.94,152.8H312.65Z" transform="translate(-137.93 -80.18)"/><path class="cls-17" d="M352.89,722.74h34l8.82,152.8h-9.47L378.5,818.3l-17.22,8.18-4.73,49.07H343.21Zm20.23,88.88q1.29-.43,1.29-1.29l1.29-77.26a1.14,1.14,0,0,0-1.29-1.29l-9.25,2.15q-1.29.22-1.29,2.15v75.76c0,.72.43,1.08,1.29,1.08Z" transform="translate(-137.93 -80.18)"/><path class="cls-1" d="M406.69,722.74h25L451,863.06h.86l4.74-140.32h12.48L467,875.54H442.2l-22-140.11h-.86V875.54h-12.7Z" transform="translate(-137.93 -80.18)"/><path class="cls-18" d="M528.07,835.3h7.1v35.94H516.24l-9.9,14L527,888.89l1.08,6-3.23,14q-2.8,11.4-14.63,11.41a24,24,0,0,1-3.66-.21l-21.52-3,2.15-10.33,25.4,1.08.65-8.61-22-6.67,11.62-21.31H489.34l-8.82-9L484.82,735a12.58,12.58,0,0,1,4-8.5q3.76-3.76,10.44-3.77l2.8.22,33.14,4.3-3.44,34.65h-9.9v-20q0-1.94-2.58-1.94H505.91q-4.74,0-5.92,3.34t-1.18,10.22V854.24a1.14,1.14,0,0,0,1.29,1.29H521.4q2.58,0,2.58-1.29V838.1Z" transform="translate(-137.93 -80.18)"/><path class="cls-14" d="M554.33,722.74h39.38v152.8H581.23l-5.6-59.83h-11l-9.9,59.83H544.65Zm24.53,82.86a1.14,1.14,0,0,0,1.29-1.29V730.92a1.14,1.14,0,0,0-1.29-1.29h-9.25a1.14,1.14,0,0,0-1.29,1.29v73.6c0,.72.43,1.08,1.29,1.08Z" transform="translate(-137.93 -80.18)"/><path class="cls-15" d="M642.78,722.74h24.75q10.33,0,16.89,6.67t6.56,17l-6.46,116.86-13.13,12.27H642.78Zm25.4,137.52q1.94-1.29,1.94-2.8l2.37-119.23q0-1.29-2.58-1.29h-9.68a2.32,2.32,0,0,0-1.29.43c-.43.29-.65.58-.65.86V860l1.94,1.29Z" transform="translate(-137.93 -80.18)"/><path class="cls-16" d="M710.57,722.74h43.69v16.79H723.49v44.33h23.46v10.76l-22.38,3.87v54.88l31-3.87.65,21.74H705.63Z" transform="translate(-137.93 -80.18)"/><path class="cls-17" d="M805.91,722.74H845.3v18.94H818.83v42.83h23.46v10.76l-22.38,3.87v76.4H801Z" transform="translate(-137.93 -80.18)"/><path class="cls-1" d="M863.37,722.74h43.69v16.79H876.29v44.33h23.46v10.76l-22.38,3.87v54.88l31-3.87.65,21.74H858.42Zm6.24-18.29,24.75-17.65,7.53,12.27L874.35,712Z" transform="translate(-137.93 -80.18)"/><rect class="cls-19" x="35.07" y="848.64" width="734" height="48"/><path class="cls-20" d="M188.65,968.57V937.06h11.16q16.79,0,16.79,15.36,0,7.36-4.58,11.76t-12.21,4.39Zm7.1-25.73v20h3.52A9.5,9.5,0,0,0,206.5,960a10.5,10.5,0,0,0,2.63-7.54,9.53,9.53,0,0,0-2.6-7.09,9.93,9.93,0,0,0-7.31-2.58Z" transform="translate(-137.93 -80.18)"/><path class="cls-20" d="M252.16,968.57h-18.9V937.06h18.17v5.78H240.36v7h10.31v5.76H240.36v7.21h11.8Z" transform="translate(-137.93 -80.18)"/><path class="cls-20" d="M294.88,937.06,284,968.57h-8l-10.72-31.51h7.65L279.47,959a15.71,15.71,0,0,1,.64,3.14h.13a17.76,17.76,0,0,1,.68-3.23l6.53-21.84Z" transform="translate(-137.93 -80.18)"/><path class="cls-20" d="M323.4,969.12a14.67,14.67,0,0,1-11-4.41,15.81,15.81,0,0,1-4.26-11.48q0-7.47,4.33-12.08a15,15,0,0,1,11.47-4.61,14.3,14.3,0,0,1,10.91,4.42q4.16,4.42,4.16,11.64,0,7.43-4.32,12A14.82,14.82,0,0,1,323.4,969.12Zm.31-26.48a7.14,7.14,0,0,0-5.93,2.8,11.68,11.68,0,0,0-2.2,7.42,11.47,11.47,0,0,0,2.2,7.41,7,7,0,0,0,5.76,2.72,7.11,7.11,0,0,0,5.82-2.65,11.34,11.34,0,0,0,2.15-7.35q0-4.9-2.09-7.62A6.81,6.81,0,0,0,323.71,942.64Z" transform="translate(-137.93 -80.18)"/><path class="cls-20" d="M378.23,967.45a20.76,20.76,0,0,1-9,1.67q-7.25,0-11.4-4.26t-4.15-11.36q0-7.56,4.67-12.26a16.33,16.33,0,0,1,12.12-4.7,22.66,22.66,0,0,1,7.78,1.17v6.83a13.78,13.78,0,0,0-7.21-1.89,9.56,9.56,0,0,0-7.16,2.79,10.35,10.35,0,0,0-2.72,7.56,10.15,10.15,0,0,0,2.57,7.28,9.08,9.08,0,0,0,6.92,2.71,14.76,14.76,0,0,0,7.6-2Z" transform="translate(-137.93 -80.18)"/><path class="cls-20" d="M404.88,937.06v5.49h-2.64v20.52h2.64v5.49H392.51v-5.49h2.64V942.55h-2.64v-5.49Z" transform="translate(-137.93 -80.18)"/><path class="cls-20" d="M434.16,969.12a14.67,14.67,0,0,1-11-4.41,15.81,15.81,0,0,1-4.26-11.48q0-7.47,4.33-12.08a15,15,0,0,1,11.47-4.61,14.3,14.3,0,0,1,10.91,4.42q4.16,4.42,4.16,11.64,0,7.43-4.32,12A14.82,14.82,0,0,1,434.16,969.12Zm.31-26.48a7.14,7.14,0,0,0-5.93,2.8,11.68,11.68,0,0,0-2.2,7.42,11.47,11.47,0,0,0,2.2,7.41,7,7,0,0,0,5.76,2.72,7.11,7.11,0,0,0,5.82-2.65,11.34,11.34,0,0,0,2.15-7.35q0-4.9-2.09-7.62A6.81,6.81,0,0,0,434.46,942.64Z" transform="translate(-137.93 -80.18)"/><path class="cls-20" d="M494.74,968.57h-7.16l-13-19.8a28.62,28.62,0,0,1-1.58-2.62h-.09q.18,1.67.18,5.1v17.31h-6.7V937.06H474l12.5,19.18q.86,1.3,1.58,2.57h.09a33.69,33.69,0,0,1-.18-4.33V937.06h6.7Z" transform="translate(-137.93 -80.18)"/><path class="cls-20" d="M541.08,968.57h-7.73l-2.24-7H519.9l-2.22,7H510l11.47-31.51h8.42Zm-11.6-12.46-3.38-10.59a13.81,13.81,0,0,1-.53-2.83h-.18a12,12,0,0,1-.55,2.75l-3.43,10.68Z" transform="translate(-137.93 -80.18)"/><path class="cls-20" d="M575.21,968.57H556.45V937.06h7.1v25.75h11.67Z" transform="translate(-137.93 -80.18)"/><path class="cls-20" d="M624.46,937.06v5.49h-2.64v20.52h2.64v5.49H612.09v-5.49h2.64V942.55h-2.64v-5.49Z" transform="translate(-137.93 -80.18)"/><path class="cls-20" d="M668.76,968.57H661.6l-13-19.8a28.62,28.62,0,0,1-1.58-2.62h-.09q.18,1.67.18,5.1v17.31h-6.7V937.06h7.65l12.5,19.18q.86,1.3,1.58,2.57h.09a33.69,33.69,0,0,1-.18-4.33V937.06h6.7Z" transform="translate(-137.93 -80.18)"/><path class="cls-20" d="M705.61,942.84H694.5v7.73h10.22v5.76H694.5v12.24h-7.1V937.06h18.22Z" transform="translate(-137.93 -80.18)"/><path class="cls-20" d="M749.94,968.57H742.2l-2.24-7H728.76l-2.22,7h-7.69l11.47-31.51h8.42Zm-11.6-12.46L735,945.52a13.81,13.81,0,0,1-.53-2.83h-.18a12,12,0,0,1-.55,2.75l-3.43,10.68Z" transform="translate(-137.93 -80.18)"/><path class="cls-20" d="M793.65,968.57h-7.16l-13-19.8a28.62,28.62,0,0,1-1.58-2.62h-.09q.18,1.67.18,5.1v17.31h-6.7V937.06h7.65l12.5,19.18q.86,1.3,1.58,2.57h.09a33.69,33.69,0,0,1-.18-4.33V937.06h6.7Z" transform="translate(-137.93 -80.18)"/><path class="cls-20" d="M834.41,942.84h-9v25.73H818.3V942.84h-8.94v-5.78h25Z" transform="translate(-137.93 -80.18)"/><path class="cls-20" d="M859.81,937.06v5.49h-2.64v20.52h2.64v5.49H847.44v-5.49h2.64V942.55h-2.64v-5.49Z" transform="translate(-137.93 -80.18)"/><path class="cls-20" d="M894.53,968.57H875.77V937.06h7.1v25.75h11.67Z" transform="translate(-137.93 -80.18)"/></svg>